<?xml version="1.0" encoding="utf-8"?>
<!-- Generator: Adobe Illustrator 16.0.0, SVG Export Plug-In . SVG Version: 6.00 Build 0)  -->
<!DOCTYPE svg PUBLIC "-//W3C//DTD SVG 1.1//EN" "http://www.w3.org/Graphics/SVG/1.1/DTD/svg11.dtd">
<svg version="1.1" id="Capa_1" xmlns="http://www.w3.org/2000/svg" xmlns:xlink="http://www.w3.org/1999/xlink" x="0px" y="0px"
	 width="190.688px" height="73.734px" viewBox="0 0 190.688 73.734" enable-background="new 0 0 190.688 73.734"
	 xml:space="preserve">
<g display="none">
	
		<rect x="33.677" y="12.977" transform="matrix(0.7071 0.7071 -0.7071 0.7071 28.4431 -23.9076)" display="inline" fill="#8E8E8E" width="18.809" height="18.809"/>
	
		<rect x="48.402" y="27.701" transform="matrix(0.7072 0.7071 -0.7071 0.7072 43.1645 -30.0062)" display="inline" fill="#8E8E8E" width="18.809" height="18.81"/>
	
		<rect x="18.901" y="27.753" transform="matrix(0.7071 0.7071 -0.7071 0.7071 34.5671 -9.1315)" display="inline" fill="#8E8E8E" width="18.809" height="18.809"/>
	
		<rect x="33.626" y="42.477" transform="matrix(0.7071 0.7071 -0.7071 0.7071 49.2882 -15.2316)" display="inline" fill="#8E8E8E" width="18.809" height="18.809"/>
	<g display="inline">
		<path fill="#8E8E8E" d="M81.897,22.859v6.514h0.456c0.703,0,1.275-0.104,1.719-0.314c0.445-0.209,0.821-0.565,1.129-1.064
			c0.308-0.498,0.509-1.172,0.603-2.022h0.409v7.964h-0.409c-0.148-1.505-0.552-2.496-1.21-2.977
			c-0.659-0.479-1.405-0.719-2.24-0.719h-0.456v4.854c0,0.811,0.045,1.317,0.135,1.52c0.089,0.203,0.265,0.381,0.526,0.533
			c0.261,0.152,0.614,0.227,1.058,0.227h0.526v0.434h-8.292v-0.434h0.526c0.46,0,0.831-0.081,1.112-0.244
			c0.202-0.109,0.358-0.298,0.468-0.563c0.085-0.188,0.128-0.678,0.128-1.473V24.662c0-0.812-0.043-1.318-0.128-1.52
			c-0.086-0.203-0.259-0.381-0.521-0.533c-0.261-0.152-0.613-0.228-1.059-0.228h-0.526v-0.435H89.23v4.551H88.75
			c-0.109-1.068-0.388-1.859-0.835-2.374c-0.449-0.515-1.098-0.878-1.947-1.087c-0.468-0.117-1.333-0.178-2.596-0.178H81.897z"/>
		<path fill="#8E8E8E" d="M96.785,36.192c-1.333,1.178-2.53,1.766-3.591,1.766c-0.624,0-1.142-0.205-1.555-0.614
			s-0.619-0.921-0.619-1.537c0-0.834,0.358-1.585,1.075-2.252c0.718-0.666,2.281-1.553,4.69-2.66v-1.1
			c0-0.825-0.046-1.347-0.136-1.561c-0.088-0.215-0.258-0.401-0.508-0.561c-0.25-0.16-0.53-0.241-0.843-0.241
			c-0.506,0-0.923,0.114-1.25,0.34c-0.203,0.14-0.304,0.304-0.304,0.491c0,0.164,0.109,0.366,0.328,0.608
			c0.296,0.335,0.444,0.658,0.444,0.971c0,0.382-0.143,0.708-0.427,0.976c-0.285,0.27-0.656,0.404-1.117,0.404
			c-0.491,0-0.903-0.148-1.234-0.445c-0.331-0.295-0.496-0.643-0.496-1.04c0-0.562,0.222-1.097,0.666-1.608
			c0.444-0.51,1.064-0.902,1.859-1.176c0.796-0.273,1.623-0.409,2.48-0.409c1.037,0,1.857,0.222,2.462,0.661
			c0.604,0.441,0.995,0.918,1.175,1.433c0.109,0.327,0.164,1.08,0.164,2.257v4.245c0,0.499,0.019,0.813,0.058,0.941
			c0.04,0.13,0.099,0.225,0.177,0.288c0.077,0.062,0.166,0.092,0.268,0.092c0.203,0,0.41-0.144,0.621-0.432l0.35,0.28
			c-0.389,0.576-0.793,0.997-1.209,1.257c-0.418,0.261-0.892,0.392-1.422,0.392c-0.624,0-1.111-0.146-1.461-0.438
			C97.077,37.228,96.863,36.785,96.785,36.192 M96.785,35.339v-3.66c-0.944,0.553-1.646,1.146-2.105,1.776
			c-0.304,0.422-0.456,0.848-0.456,1.275c0,0.359,0.129,0.675,0.386,0.947c0.195,0.211,0.467,0.315,0.819,0.315
			C95.818,35.993,96.271,35.775,96.785,35.339"/>
		<path fill="#8E8E8E" d="M107.263,26.872v2.479c0.726-1.13,1.361-1.88,1.906-2.25c0.546-0.371,1.072-0.557,1.579-0.557
			c0.437,0,0.785,0.136,1.047,0.404s0.391,0.649,0.391,1.141c0,0.522-0.126,0.927-0.38,1.216s-0.559,0.433-0.918,0.433
			c-0.413,0-0.771-0.133-1.075-0.397c-0.305-0.266-0.483-0.414-0.538-0.444c-0.078-0.046-0.167-0.07-0.269-0.07
			c-0.227,0-0.441,0.086-0.644,0.257c-0.32,0.266-0.562,0.644-0.725,1.135c-0.25,0.756-0.375,1.59-0.375,2.502v2.514l0.012,0.656
			c0,0.443,0.027,0.729,0.083,0.854c0.093,0.21,0.23,0.365,0.414,0.463c0.183,0.097,0.493,0.156,0.93,0.181v0.421h-5.905v-0.421
			c0.475-0.04,0.797-0.17,0.965-0.392c0.167-0.223,0.251-0.81,0.251-1.762v-6.045c0-0.624-0.03-1.021-0.094-1.193
			c-0.077-0.218-0.19-0.377-0.34-0.479c-0.147-0.102-0.408-0.172-0.782-0.211v-0.433H107.263z"/>
		<path fill="#8E8E8E" d="M117.893,26.872v1.438c0.602-0.656,1.156-1.113,1.667-1.375c0.511-0.261,1.07-0.392,1.678-0.392
			c0.702,0,1.29,0.165,1.766,0.491c0.476,0.328,0.843,0.826,1.101,1.498c0.623-0.702,1.222-1.209,1.795-1.521
			c0.572-0.311,1.171-0.468,1.795-0.468c0.756,0,1.357,0.175,1.807,0.521c0.448,0.347,0.761,0.787,0.936,1.321
			c0.176,0.534,0.263,1.385,0.263,2.555v4.479c0,0.842,0.076,1.365,0.229,1.568c0.152,0.202,0.469,0.334,0.952,0.397v0.421h-5.647
			v-0.421c0.443-0.04,0.771-0.212,0.981-0.515c0.141-0.211,0.211-0.694,0.211-1.451v-4.701c0-0.974-0.039-1.594-0.117-1.859
			c-0.077-0.264-0.2-0.461-0.368-0.59c-0.167-0.129-0.364-0.193-0.59-0.193c-0.335,0-0.675,0.123-1.018,0.369
			s-0.69,0.613-1.041,1.105v5.869c0,0.787,0.066,1.284,0.198,1.486c0.18,0.287,0.522,0.449,1.028,0.479v0.421h-5.659v-0.421
			c0.304-0.016,0.545-0.092,0.72-0.229c0.175-0.136,0.292-0.3,0.351-0.49c0.059-0.191,0.088-0.605,0.088-1.246v-4.701
			c0-0.989-0.04-1.609-0.117-1.859c-0.077-0.248-0.209-0.443-0.392-0.584s-0.38-0.211-0.59-0.211c-0.313,0-0.597,0.082-0.854,0.246
			c-0.367,0.241-0.757,0.654-1.171,1.24v5.869c0,0.772,0.076,1.281,0.229,1.527c0.151,0.246,0.47,0.391,0.953,0.438v0.421h-5.637
			v-0.421c0.46-0.048,0.787-0.195,0.982-0.444c0.133-0.172,0.199-0.68,0.199-1.521v-6.175c0-0.825-0.076-1.34-0.229-1.542
			c-0.152-0.203-0.47-0.336-0.953-0.398v-0.433H117.893z"/>
		<path fill="#8E8E8E" d="M139.34,36.192c-1.332,1.178-2.53,1.766-3.59,1.766c-0.623,0-1.143-0.205-1.555-0.614
			c-0.413-0.409-0.62-0.921-0.62-1.537c0-0.834,0.358-1.585,1.076-2.252c0.717-0.666,2.28-1.553,4.688-2.66v-1.1
			c0-0.825-0.045-1.347-0.134-1.561c-0.09-0.215-0.259-0.401-0.509-0.561c-0.249-0.16-0.531-0.241-0.842-0.241
			c-0.507,0-0.924,0.114-1.251,0.34c-0.203,0.14-0.304,0.304-0.304,0.491c0,0.164,0.108,0.366,0.326,0.608
			c0.296,0.335,0.445,0.658,0.445,0.971c0,0.382-0.143,0.708-0.428,0.976c-0.284,0.27-0.656,0.404-1.117,0.404
			c-0.491,0-0.901-0.148-1.232-0.445c-0.332-0.295-0.497-0.643-0.497-1.04c0-0.562,0.222-1.097,0.666-1.608
			c0.444-0.51,1.063-0.902,1.86-1.176c0.795-0.273,1.62-0.409,2.479-0.409c1.036,0,1.857,0.222,2.462,0.661
			c0.604,0.441,0.995,0.918,1.175,1.433c0.109,0.327,0.163,1.08,0.163,2.257v4.245c0,0.499,0.02,0.813,0.06,0.941
			c0.038,0.13,0.098,0.225,0.175,0.288c0.078,0.062,0.169,0.092,0.269,0.092c0.203,0,0.41-0.144,0.621-0.432l0.351,0.28
			c-0.39,0.576-0.794,0.997-1.211,1.257c-0.417,0.261-0.891,0.392-1.421,0.392c-0.623,0-1.11-0.146-1.462-0.438
			C139.633,37.228,139.418,36.785,139.34,36.192 M139.34,35.339v-3.66c-0.942,0.553-1.644,1.146-2.104,1.776
			c-0.304,0.422-0.456,0.848-0.456,1.275c0,0.359,0.129,0.675,0.387,0.947c0.195,0.211,0.468,0.315,0.817,0.315
			C138.373,35.993,138.826,35.775,139.34,35.339"/>
		<path fill="#8E8E8E" d="M154.205,34.988l0.361,0.279c-0.514,0.969-1.155,1.688-1.924,2.158c-0.768,0.473-1.584,0.708-2.449,0.708
			c-1.458,0-2.624-0.549-3.497-1.649c-0.873-1.098-1.31-2.42-1.31-3.965c0-1.488,0.397-2.797,1.193-3.929
			c0.959-1.364,2.279-2.047,3.964-2.047c1.13,0,2.029,0.286,2.695,0.854c0.667,0.571,1,1.206,1,1.907
			c0,0.445-0.134,0.799-0.404,1.064c-0.268,0.264-0.62,0.396-1.058,0.396c-0.46,0-0.84-0.152-1.141-0.455
			c-0.299-0.305-0.484-0.847-0.555-1.626c-0.047-0.492-0.16-0.834-0.339-1.03c-0.18-0.193-0.39-0.291-0.633-0.291
			c-0.373,0-0.693,0.199-0.959,0.598c-0.405,0.599-0.607,1.52-0.607,2.758c0,1.03,0.163,2.014,0.492,2.953
			c0.326,0.939,0.775,1.64,1.344,2.1c0.429,0.336,0.936,0.504,1.521,0.504c0.382,0,0.744-0.091,1.088-0.271
			C153.331,35.825,153.737,35.486,154.205,34.988"/>
		<path fill="#8E8E8E" d="M160.18,26.872v8.666c0,0.771,0.09,1.264,0.27,1.479c0.18,0.215,0.529,0.338,1.053,0.368v0.421h-5.906
			v-0.421c0.483-0.016,0.843-0.157,1.076-0.422c0.156-0.179,0.234-0.654,0.234-1.426v-6.387c0-0.771-0.091-1.264-0.269-1.478
			c-0.181-0.215-0.527-0.337-1.042-0.369v-0.433H160.18z M158.543,21.574c0.507,0,0.935,0.178,1.286,0.531
			c0.351,0.355,0.526,0.783,0.526,1.281c0,0.5-0.178,0.924-0.532,1.275c-0.355,0.35-0.782,0.525-1.28,0.525
			c-0.499,0-0.924-0.176-1.275-0.525c-0.351-0.352-0.525-0.775-0.525-1.275c0-0.498,0.175-0.926,0.525-1.281
			C157.619,21.752,158.044,21.574,158.543,21.574"/>
		<path fill="#8E8E8E" d="M168.6,36.192c-1.332,1.178-2.53,1.766-3.59,1.766c-0.623,0-1.143-0.205-1.555-0.614
			c-0.414-0.409-0.62-0.921-0.62-1.537c0-0.834,0.358-1.585,1.076-2.252c0.716-0.666,2.279-1.553,4.688-2.66v-1.1
			c0-0.825-0.044-1.347-0.135-1.561c-0.089-0.215-0.259-0.401-0.509-0.561c-0.249-0.16-0.53-0.241-0.841-0.241
			c-0.508,0-0.925,0.114-1.252,0.34c-0.203,0.14-0.304,0.304-0.304,0.491c0,0.164,0.108,0.366,0.327,0.608
			c0.296,0.335,0.444,0.658,0.444,0.971c0,0.382-0.143,0.708-0.427,0.976c-0.284,0.27-0.657,0.404-1.117,0.404
			c-0.491,0-0.902-0.148-1.233-0.445c-0.331-0.295-0.496-0.643-0.496-1.04c0-0.562,0.222-1.097,0.666-1.608
			c0.444-0.51,1.063-0.902,1.859-1.176c0.795-0.273,1.621-0.409,2.479-0.409c1.036,0,1.856,0.222,2.461,0.661
			c0.604,0.441,0.996,0.918,1.175,1.433c0.11,0.327,0.164,1.08,0.164,2.257v4.245c0,0.499,0.019,0.813,0.06,0.941
			c0.038,0.13,0.097,0.225,0.175,0.288c0.077,0.062,0.168,0.092,0.268,0.092c0.204,0,0.411-0.144,0.621-0.432l0.352,0.28
			c-0.391,0.576-0.794,0.997-1.211,1.257c-0.417,0.261-0.891,0.392-1.421,0.392c-0.625,0-1.111-0.146-1.463-0.438
			C168.892,37.228,168.679,36.785,168.6,36.192 M168.6,35.339v-3.66c-0.943,0.553-1.645,1.146-2.104,1.776
			c-0.305,0.422-0.456,0.848-0.456,1.275c0,0.359,0.129,0.675,0.386,0.947c0.194,0.211,0.468,0.315,0.818,0.315
			C167.633,35.993,168.085,35.775,168.6,35.339"/>
		<path fill="#8E8E8E" d="M84.611,44.066v2.747h-0.229c-0.171-0.716-0.491-1.266-0.959-1.648c-0.467-0.381-0.997-0.572-1.59-0.572
			c-0.495,0-0.949,0.143-1.362,0.427c-0.414,0.284-0.716,0.656-0.906,1.117c-0.246,0.589-0.369,1.243-0.369,1.964
			c0,0.71,0.09,1.356,0.269,1.938c0.179,0.585,0.459,1.024,0.842,1.323c0.382,0.297,0.877,0.446,1.485,0.446
			c0.499,0,0.956-0.109,1.372-0.327c0.415-0.219,0.853-0.594,1.312-1.129v0.685c-0.444,0.464-0.907,0.8-1.389,1.009
			c-0.48,0.208-1.043,0.313-1.686,0.313c-0.847,0-1.598-0.169-2.254-0.509c-0.657-0.34-1.164-0.826-1.521-1.462
			c-0.357-0.635-0.534-1.312-0.534-2.028c0-0.757,0.197-1.474,0.593-2.152c0.396-0.677,0.93-1.205,1.602-1.579
			c0.673-0.373,1.386-0.561,2.144-0.561c0.557,0,1.146,0.12,1.765,0.361c0.359,0.142,0.587,0.212,0.685,0.212
			c0.125,0,0.233-0.046,0.324-0.138c0.092-0.092,0.152-0.237,0.179-0.436H84.611z"/>
		<path fill="#8E8E8E" d="M88.687,51.37c-0.667,0.589-1.265,0.883-1.795,0.883c-0.312,0-0.572-0.103-0.777-0.308
			c-0.207-0.204-0.311-0.461-0.311-0.77c0-0.417,0.179-0.791,0.538-1.124c0.359-0.334,1.141-0.777,2.345-1.331v-0.55
			c0-0.413-0.022-0.674-0.068-0.78c-0.044-0.106-0.129-0.201-0.254-0.281C88.24,47.03,88.1,46.99,87.944,46.99
			c-0.253,0-0.461,0.057-0.625,0.17c-0.101,0.069-0.152,0.152-0.152,0.244c0,0.082,0.054,0.185,0.163,0.306
			c0.149,0.167,0.222,0.328,0.222,0.484c0,0.191-0.071,0.354-0.213,0.488c-0.143,0.135-0.329,0.201-0.559,0.201
			c-0.246,0-0.451-0.073-0.617-0.222c-0.166-0.148-0.248-0.321-0.248-0.521c0-0.28,0.111-0.549,0.333-0.804
			c0.222-0.256,0.532-0.451,0.93-0.589c0.398-0.136,0.811-0.203,1.24-0.203c0.519,0,0.929,0.109,1.231,0.33
			c0.302,0.22,0.498,0.459,0.587,0.716c0.055,0.164,0.083,0.54,0.083,1.129v2.122c0,0.25,0.01,0.406,0.029,0.471
			c0.019,0.063,0.049,0.111,0.087,0.145c0.04,0.03,0.084,0.046,0.135,0.046c0.101,0,0.205-0.072,0.31-0.217l0.175,0.142
			c-0.195,0.287-0.396,0.497-0.604,0.628c-0.21,0.13-0.446,0.196-0.711,0.196c-0.312,0-0.556-0.074-0.731-0.22
			C88.833,51.887,88.726,51.666,88.687,51.37 M88.687,50.943v-1.832c-0.472,0.278-0.822,0.573-1.053,0.89
			c-0.151,0.212-0.227,0.423-0.227,0.637c0,0.18,0.064,0.338,0.192,0.474c0.097,0.106,0.234,0.158,0.41,0.158
			C88.203,51.27,88.429,51.161,88.687,50.943"/>
		<path fill="#8E8E8E" d="M95.113,46.557l0.087,1.866h-0.198c-0.239-0.554-0.486-0.933-0.74-1.135
			c-0.255-0.203-0.51-0.305-0.763-0.305c-0.159,0-0.296,0.055-0.409,0.161c-0.114,0.107-0.171,0.231-0.171,0.371
			c0,0.105,0.04,0.207,0.118,0.305c0.125,0.159,0.474,0.434,1.046,0.821s0.95,0.718,1.131,0.988
			c0.182,0.271,0.272,0.574,0.272,0.909c0,0.304-0.075,0.604-0.228,0.895c-0.152,0.293-0.367,0.518-0.644,0.672
			c-0.276,0.156-0.583,0.234-0.917,0.234c-0.261,0-0.611-0.082-1.046-0.245c-0.118-0.042-0.198-0.064-0.241-0.064
			c-0.128,0-0.235,0.098-0.321,0.292h-0.192l-0.094-1.965h0.199c0.175,0.515,0.416,0.901,0.722,1.158
			c0.306,0.258,0.596,0.387,0.868,0.387c0.188,0,0.341-0.058,0.459-0.174c0.119-0.115,0.178-0.254,0.178-0.419
			c0-0.186-0.058-0.348-0.175-0.483c-0.117-0.137-0.378-0.344-0.783-0.62c-0.597-0.413-0.983-0.729-1.158-0.947
			c-0.257-0.32-0.386-0.673-0.386-1.059c0-0.421,0.146-0.802,0.436-1.143c0.291-0.342,0.709-0.512,1.261-0.512
			c0.295,0,0.583,0.071,0.859,0.216c0.105,0.059,0.19,0.088,0.257,0.088c0.071,0,0.127-0.015,0.17-0.045
			c0.042-0.028,0.111-0.111,0.205-0.248H95.113z"/>
		<path fill="#8E8E8E" d="M99.334,51.37c-0.667,0.589-1.265,0.883-1.794,0.883c-0.313,0-0.572-0.103-0.777-0.308
			c-0.209-0.204-0.311-0.461-0.311-0.77c0-0.417,0.178-0.791,0.537-1.124c0.359-0.334,1.141-0.777,2.345-1.331v-0.55
			c0-0.413-0.022-0.674-0.066-0.78c-0.046-0.106-0.13-0.201-0.255-0.281c-0.125-0.079-0.266-0.119-0.42-0.119
			c-0.256,0-0.463,0.057-0.627,0.17c-0.102,0.069-0.152,0.152-0.152,0.244c0,0.082,0.055,0.185,0.164,0.306
			c0.148,0.167,0.222,0.328,0.222,0.484c0,0.191-0.071,0.354-0.214,0.488c-0.141,0.135-0.327,0.201-0.557,0.201
			c-0.246,0-0.452-0.073-0.617-0.222c-0.166-0.148-0.248-0.321-0.248-0.521c0-0.28,0.11-0.549,0.332-0.804
			c0.223-0.256,0.533-0.451,0.93-0.589c0.396-0.136,0.811-0.203,1.24-0.203c0.518,0,0.928,0.109,1.23,0.33
			c0.302,0.22,0.498,0.459,0.588,0.716c0.055,0.164,0.082,0.54,0.082,1.129v2.122c0,0.25,0.01,0.406,0.029,0.471
			c0.02,0.063,0.048,0.111,0.087,0.145c0.04,0.03,0.084,0.046,0.136,0.046c0.101,0,0.204-0.072,0.31-0.217l0.175,0.142
			c-0.194,0.287-0.396,0.497-0.605,0.628c-0.209,0.13-0.444,0.196-0.71,0.196c-0.312,0-0.556-0.074-0.73-0.22
			C99.48,51.887,99.373,51.666,99.334,51.37 M99.334,50.943v-1.832c-0.472,0.278-0.822,0.573-1.052,0.89
			c-0.152,0.212-0.229,0.423-0.229,0.637c0,0.18,0.064,0.338,0.192,0.474c0.099,0.106,0.235,0.158,0.411,0.158
			C98.851,51.27,99.077,51.161,99.334,50.943"/>
		<path fill="#8E8E8E" d="M104.444,44.247v6.795c0,0.387,0.046,0.633,0.135,0.739c0.091,0.107,0.266,0.17,0.527,0.186v0.21h-2.954
			v-0.21c0.242-0.008,0.421-0.079,0.538-0.212c0.078-0.089,0.117-0.326,0.117-0.713v-5.66c0-0.382-0.045-0.626-0.134-0.734
			c-0.09-0.106-0.264-0.168-0.521-0.185v-0.216H104.444z"/>
		<path fill="#8E8E8E" d="M107.766,46.709v4.333c0,0.387,0.045,0.633,0.134,0.739c0.091,0.107,0.266,0.17,0.527,0.186v0.21h-2.954
			v-0.21c0.243-0.008,0.422-0.079,0.539-0.212c0.078-0.089,0.116-0.326,0.116-0.713V47.85c0-0.386-0.044-0.633-0.134-0.74
			s-0.264-0.168-0.521-0.184v-0.217H107.766z M106.947,44.061c0.253,0,0.468,0.089,0.644,0.267c0.175,0.176,0.262,0.39,0.262,0.639
			s-0.087,0.463-0.266,0.637c-0.177,0.177-0.391,0.265-0.64,0.265c-0.25,0-0.462-0.088-0.637-0.265
			c-0.176-0.174-0.264-0.388-0.264-0.637s0.088-0.463,0.264-0.639C106.485,44.149,106.697,44.061,106.947,44.061"/>
		<path fill="#8E8E8E" d="M112.414,46.557l0.088,1.866h-0.198c-0.237-0.554-0.484-0.933-0.74-1.135
			c-0.255-0.203-0.51-0.305-0.764-0.305c-0.16,0-0.295,0.055-0.408,0.161c-0.113,0.107-0.17,0.231-0.17,0.371
			c0,0.105,0.038,0.207,0.118,0.305c0.124,0.159,0.472,0.434,1.046,0.821c0.572,0.388,0.949,0.718,1.131,0.988
			c0.181,0.271,0.272,0.574,0.272,0.909c0,0.304-0.076,0.604-0.229,0.895c-0.152,0.293-0.366,0.518-0.644,0.672
			c-0.276,0.156-0.583,0.234-0.918,0.234c-0.261,0-0.609-0.082-1.047-0.245c-0.116-0.042-0.196-0.064-0.239-0.064
			c-0.128,0-0.235,0.098-0.322,0.292h-0.192l-0.094-1.965h0.198c0.177,0.515,0.417,0.901,0.723,1.158
			c0.307,0.258,0.596,0.387,0.868,0.387c0.188,0,0.341-0.058,0.459-0.174c0.119-0.115,0.179-0.254,0.179-0.419
			c0-0.186-0.059-0.348-0.175-0.483c-0.117-0.137-0.378-0.344-0.784-0.62c-0.597-0.413-0.981-0.729-1.158-0.947
			c-0.256-0.32-0.386-0.673-0.386-1.059c0-0.421,0.146-0.802,0.436-1.143c0.291-0.342,0.71-0.512,1.261-0.512
			c0.296,0,0.583,0.071,0.859,0.216c0.105,0.059,0.19,0.088,0.258,0.088c0.069,0,0.126-0.015,0.169-0.045
			c0.042-0.028,0.112-0.111,0.205-0.248H112.414z"/>
		<path fill="#8E8E8E" d="M121.928,44.247v6.292c0,0.425,0.012,0.676,0.035,0.755c0.031,0.128,0.091,0.223,0.179,0.286
			c0.088,0.062,0.241,0.101,0.459,0.116v0.192l-2.31,0.451v-0.865c-0.277,0.335-0.524,0.563-0.74,0.685
			c-0.217,0.121-0.462,0.181-0.733,0.181c-0.698,0-1.25-0.312-1.655-0.937c-0.326-0.505-0.491-1.127-0.491-1.863
			c0-0.59,0.102-1.116,0.304-1.582c0.203-0.465,0.48-0.817,0.834-1.057c0.354-0.237,0.732-0.355,1.137-0.355
			c0.262,0,0.493,0.05,0.696,0.151c0.202,0.101,0.42,0.278,0.649,0.532V45.58c0-0.416-0.019-0.667-0.053-0.754
			c-0.047-0.112-0.118-0.196-0.211-0.251c-0.094-0.055-0.269-0.083-0.526-0.083v-0.245H121.928z M120.291,47.955
			c-0.289-0.554-0.643-0.83-1.06-0.83c-0.144,0-0.263,0.038-0.356,0.116c-0.144,0.121-0.262,0.333-0.353,0.637
			c-0.092,0.306-0.139,0.771-0.139,1.398c0,0.69,0.051,1.2,0.152,1.531c0.102,0.332,0.24,0.572,0.416,0.72
			c0.089,0.074,0.212,0.111,0.368,0.111c0.343,0,0.666-0.269,0.971-0.808V47.955z"/>
		<path fill="#8E8E8E" d="M127.903,49.247h-2.999c0.034,0.725,0.229,1.299,0.579,1.719c0.269,0.323,0.592,0.485,0.97,0.485
			c0.234,0,0.447-0.065,0.638-0.195c0.19-0.131,0.396-0.366,0.613-0.706l0.199,0.13c-0.296,0.604-0.624,1.032-0.982,1.283
			c-0.358,0.252-0.773,0.377-1.245,0.377c-0.811,0-1.425-0.312-1.842-0.937c-0.336-0.502-0.503-1.126-0.503-1.87
			c0-0.911,0.247-1.638,0.739-2.178c0.493-0.54,1.072-0.81,1.734-0.81c0.553,0,1.034,0.227,1.442,0.681
			C127.653,47.682,127.872,48.354,127.903,49.247 M126.465,48.854c0-0.628-0.034-1.057-0.102-1.292
			c-0.068-0.234-0.175-0.411-0.319-0.532c-0.082-0.069-0.19-0.104-0.328-0.104c-0.202,0-0.368,0.099-0.496,0.298
			c-0.229,0.347-0.345,0.822-0.345,1.428v0.203H126.465z"/>
		<path fill="#8E8E8E" d="M138.738,49.393l-0.298,2.784h-7.04V51.96h0.264c0.229,0,0.414-0.042,0.555-0.122
			c0.102-0.056,0.179-0.149,0.233-0.282c0.043-0.093,0.063-0.338,0.063-0.735v-5.218c0-0.403-0.021-0.657-0.063-0.76
			c-0.043-0.1-0.13-0.189-0.26-0.265c-0.13-0.076-0.307-0.115-0.528-0.115H131.4v-0.216h4.228v0.216h-0.346
			c-0.229,0-0.414,0.041-0.555,0.124c-0.102,0.055-0.182,0.148-0.24,0.28c-0.043,0.095-0.063,0.34-0.063,0.735v5.054
			c0,0.405,0.022,0.663,0.069,0.774s0.139,0.193,0.274,0.249c0.098,0.034,0.334,0.053,0.709,0.053h0.659
			c0.422,0,0.772-0.074,1.053-0.224c0.281-0.147,0.522-0.382,0.729-0.701c0.205-0.318,0.398-0.791,0.581-1.415H138.738z"/>
		<path fill="#8E8E8E" d="M144.2,49.247h-2.999c0.033,0.725,0.227,1.299,0.577,1.719c0.27,0.323,0.594,0.485,0.972,0.485
			c0.234,0,0.446-0.065,0.637-0.195c0.191-0.131,0.396-0.366,0.614-0.706l0.199,0.13c-0.298,0.604-0.624,1.032-0.983,1.283
			c-0.358,0.252-0.772,0.377-1.245,0.377c-0.811,0-1.424-0.312-1.841-0.937c-0.336-0.502-0.503-1.126-0.503-1.87
			c0-0.911,0.245-1.638,0.739-2.178c0.493-0.54,1.07-0.81,1.733-0.81c0.554,0,1.034,0.227,1.44,0.681
			C143.948,47.682,144.168,48.354,144.2,49.247 M142.761,48.854c0-0.628-0.034-1.057-0.103-1.292
			c-0.067-0.234-0.174-0.411-0.317-0.532c-0.083-0.069-0.192-0.104-0.328-0.104c-0.202,0-0.368,0.099-0.496,0.298
			c-0.229,0.347-0.346,0.822-0.346,1.428v0.203H142.761z"/>
		<path fill="#8E8E8E" d="M147.118,46.709v0.708c0.279-0.304,0.55-0.525,0.807-0.663c0.257-0.14,0.534-0.208,0.829-0.208
			c0.355,0,0.65,0.098,0.884,0.295s0.39,0.442,0.468,0.733c0.063,0.224,0.094,0.649,0.094,1.28v2.129
			c0,0.42,0.037,0.684,0.114,0.787c0.076,0.103,0.233,0.168,0.477,0.196v0.21h-2.767v-0.21c0.207-0.028,0.355-0.113,0.444-0.259
			c0.063-0.098,0.094-0.338,0.094-0.725v-2.433c0-0.448-0.018-0.73-0.053-0.848c-0.034-0.118-0.095-0.208-0.179-0.272
			c-0.083-0.064-0.176-0.096-0.277-0.096c-0.335,0-0.647,0.239-0.935,0.719v2.93c0,0.409,0.036,0.668,0.112,0.777
			s0.218,0.178,0.425,0.206v0.21h-2.765v-0.21c0.229-0.024,0.393-0.099,0.489-0.223c0.067-0.086,0.101-0.341,0.101-0.761v-3.088
			c0-0.412-0.038-0.669-0.114-0.771c-0.075-0.103-0.235-0.168-0.476-0.199v-0.217H147.118z"/>
		<path fill="#8E8E8E" d="M156.005,50.767l0.182,0.141c-0.258,0.483-0.578,0.843-0.962,1.079s-0.792,0.354-1.226,0.354
			c-0.729,0-1.312-0.274-1.748-0.824s-0.654-1.211-0.654-1.982c0-0.745,0.199-1.399,0.597-1.964c0.479-0.683,1.14-1.023,1.981-1.023
			c0.564,0,1.015,0.143,1.349,0.427c0.333,0.284,0.499,0.602,0.499,0.952c0,0.223-0.067,0.399-0.202,0.532
			c-0.135,0.132-0.31,0.198-0.528,0.198c-0.23,0-0.421-0.075-0.569-0.228c-0.15-0.152-0.243-0.422-0.279-0.812
			c-0.022-0.246-0.079-0.418-0.169-0.516c-0.09-0.097-0.195-0.146-0.315-0.146c-0.188,0-0.348,0.099-0.48,0.298
			c-0.202,0.3-0.304,0.761-0.304,1.38c0,0.514,0.082,1.007,0.245,1.477c0.165,0.47,0.389,0.819,0.673,1.049
			c0.215,0.168,0.469,0.252,0.761,0.252c0.191,0,0.372-0.045,0.544-0.134C155.568,51.186,155.771,51.016,156.005,50.767"/>
		<path fill="#8E8E8E" d="M158.993,46.709v4.333c0,0.387,0.045,0.633,0.134,0.739c0.09,0.107,0.266,0.17,0.526,0.186v0.21h-2.952
			v-0.21c0.241-0.008,0.421-0.079,0.538-0.212c0.077-0.089,0.116-0.326,0.116-0.713V47.85c0-0.386-0.044-0.633-0.135-0.74
			c-0.089-0.107-0.264-0.168-0.52-0.184v-0.217H158.993z M158.175,44.061c0.253,0,0.468,0.089,0.644,0.267
			c0.175,0.176,0.262,0.39,0.262,0.639s-0.088,0.463-0.266,0.637c-0.178,0.177-0.391,0.265-0.64,0.265
			c-0.251,0-0.462-0.088-0.639-0.265c-0.175-0.174-0.262-0.388-0.262-0.637s0.087-0.463,0.262-0.639
			C157.713,44.149,157.924,44.061,158.175,44.061"/>
		<path fill="#8E8E8E" d="M162.419,46.709v0.708c0.281-0.304,0.55-0.525,0.808-0.663c0.258-0.14,0.534-0.208,0.83-0.208
			c0.355,0,0.649,0.098,0.883,0.295c0.234,0.197,0.39,0.442,0.467,0.733c0.063,0.224,0.094,0.649,0.094,1.28v2.129
			c0,0.42,0.038,0.684,0.114,0.787c0.077,0.103,0.235,0.168,0.478,0.196v0.21h-2.766v-0.21c0.206-0.028,0.354-0.113,0.444-0.259
			c0.062-0.098,0.094-0.338,0.094-0.725v-2.433c0-0.448-0.019-0.73-0.054-0.848c-0.035-0.118-0.094-0.208-0.178-0.272
			s-0.177-0.096-0.278-0.096c-0.335,0-0.646,0.239-0.936,0.719v2.93c0,0.409,0.038,0.668,0.113,0.777
			c0.077,0.109,0.218,0.178,0.425,0.206v0.21h-2.766v-0.21c0.23-0.024,0.395-0.099,0.491-0.223c0.066-0.086,0.101-0.341,0.101-0.761
			v-3.088c0-0.412-0.039-0.669-0.114-0.771c-0.077-0.103-0.235-0.168-0.478-0.199v-0.217H162.419z"/>
		<path fill="#8E8E8E" d="M169.863,51.37c-0.667,0.589-1.266,0.883-1.796,0.883c-0.312,0-0.57-0.103-0.777-0.308
			c-0.207-0.204-0.311-0.461-0.311-0.77c0-0.417,0.18-0.791,0.539-1.124c0.358-0.334,1.14-0.777,2.345-1.331v-0.55
			c0-0.413-0.023-0.674-0.068-0.78c-0.044-0.106-0.128-0.201-0.253-0.281c-0.126-0.079-0.266-0.119-0.422-0.119
			c-0.254,0-0.462,0.057-0.625,0.17c-0.103,0.069-0.152,0.152-0.152,0.244c0,0.082,0.055,0.185,0.163,0.306
			c0.148,0.167,0.223,0.328,0.223,0.484c0,0.191-0.071,0.354-0.214,0.488s-0.328,0.201-0.559,0.201c-0.244,0-0.45-0.073-0.616-0.222
			c-0.165-0.148-0.248-0.321-0.248-0.521c0-0.28,0.111-0.549,0.333-0.804c0.222-0.256,0.531-0.451,0.929-0.589
			c0.398-0.136,0.812-0.203,1.24-0.203c0.519,0,0.929,0.109,1.231,0.33c0.302,0.22,0.497,0.459,0.588,0.716
			c0.055,0.164,0.081,0.54,0.081,1.129v2.122c0,0.25,0.011,0.406,0.029,0.471c0.021,0.063,0.049,0.111,0.088,0.145
			c0.039,0.03,0.084,0.046,0.134,0.046c0.103,0,0.206-0.072,0.311-0.217l0.175,0.142c-0.193,0.287-0.396,0.497-0.604,0.628
			c-0.21,0.13-0.447,0.196-0.711,0.196c-0.313,0-0.557-0.074-0.73-0.22C170.009,51.887,169.902,51.666,169.863,51.37
			 M169.863,50.943v-1.832c-0.472,0.278-0.822,0.573-1.052,0.89c-0.153,0.212-0.229,0.423-0.229,0.637
			c0,0.18,0.064,0.338,0.193,0.474c0.098,0.106,0.233,0.158,0.409,0.158C169.379,51.27,169.605,51.161,169.863,50.943"/>
	</g>
</g>
<g display="none">
	<path display="inline" fill="#8E8E8E" d="M90.888,35.77l14.258-15.848h-9.898L81.706,34.641V19.922h-8v35.849h3.432h2.377v-7.267
		H77.01l2.505-2.187v-0.11h0.126l6.338-5.531l6.275,5.531h0.099v0.089l2.506,2.208h-2.506v7.267h0.201h3.258h3.717h5.617
		c-1.641-2.29-4.121-5.769-7.438-10.436C94.394,40.667,92.119,37.479,90.888,35.77"/>
	<g display="inline">
		<path fill="#8E8E8E" d="M29.887,19.699c5.627,0,10.305,1.752,14.034,5.256c3.728,3.504,5.592,7.88,5.592,13.127
			c0,5.282-1.873,9.702-5.619,13.258c-3.746,3.555-8.415,5.333-14.007,5.333c-5.592,0-10.253-1.769-13.981-5.309
			c-3.729-3.537-5.593-7.965-5.593-13.282c0-5.281,1.864-9.666,5.593-13.154C19.634,21.442,24.294,19.699,29.887,19.699z
			 M29.991,27.414c-2.832,0-5.248,1.028-7.25,3.081c-2.002,2.056-3.004,4.602-3.004,7.639c0,3.038,1.01,5.602,3.03,7.69
			s4.427,3.133,7.224,3.133c2.796,0,5.169-1.044,7.12-3.133c1.95-2.089,2.926-4.652,2.926-7.69c0-3.037-0.976-5.583-2.926-7.639
			C35.16,28.442,32.787,27.414,29.991,27.414z"/>
		<path fill="#8E8E8E" d="M63.598,56.259H54.38v-36.25h9.217V56.259z"/>
		<path fill="#8E8E8E" d="M124.081,19.699c5.626,0,10.304,1.752,14.034,5.256c3.727,3.504,5.592,7.88,5.592,13.127
			c0,5.282-1.873,9.702-5.619,13.258c-3.746,3.555-8.414,5.333-14.007,5.333c-5.592,0-10.252-1.769-13.982-5.309
			c-3.729-3.537-5.592-7.965-5.592-13.282c0-5.281,1.863-9.666,5.592-13.154C113.829,21.442,118.489,19.699,124.081,19.699z
			 M124.185,27.414c-2.832,0-5.248,1.028-7.25,3.081c-2.002,2.056-3.004,4.602-3.004,7.639c0,3.038,1.01,5.602,3.029,7.69
			s4.428,3.133,7.225,3.133c2.795,0,5.169-1.044,7.12-3.133s2.926-4.652,2.926-7.69c0-3.037-0.975-5.583-2.926-7.639
			C129.354,28.442,126.979,27.414,124.185,27.414z"/>
		<path fill="#8E8E8E" d="M162.504,19.596c5.42,0,10.184,1.346,14.293,4.038l-3.469,7.198c-1.9-1.104-3.936-2.01-6.111-2.719
			c-2.176-0.707-4.006-1.061-5.488-1.061c-2.66,0-3.988,0.88-3.988,2.641c0,1.139,0.656,2.055,1.969,2.744
			c1.311,0.691,2.908,1.286,4.789,1.786c1.881,0.501,3.762,1.105,5.645,1.813c1.881,0.709,3.479,1.856,4.789,3.444
			c1.313,1.588,1.969,3.591,1.969,6.007c0,3.487-1.365,6.206-4.09,8.155c-2.729,1.951-6.197,2.927-10.41,2.927
			c-3.002,0-5.973-0.519-8.906-1.554c-2.936-1.035-5.49-2.451-7.664-4.247l3.572-7.094c1.83,1.589,3.988,2.893,6.473,3.909
			c2.486,1.021,4.695,1.528,6.629,1.528c1.484,0,2.641-0.268,3.471-0.802c0.828-0.536,1.242-1.321,1.242-2.357
			c0-1-0.475-1.839-1.424-2.511c-0.951-0.674-2.133-1.174-3.547-1.502c-1.416-0.327-2.951-0.769-4.609-1.321
			c-1.656-0.552-3.193-1.155-4.609-1.812s-2.598-1.701-3.547-3.134c-0.949-1.432-1.424-3.149-1.424-5.152
			c0-3.313,1.32-5.963,3.961-7.948C154.66,20.588,158.156,19.596,162.504,19.596z"/>
	</g>
</g>
<g>
	<path fill="#8E8E8E" d="M22.972,52.329c-0.516-0.439-1.062-0.768-1.636-0.988c-0.575-0.219-1.179-0.329-1.812-0.329
		c-1.226,0-2.223,0.394-2.991,1.18c-0.769,0.787-1.153,1.806-1.153,3.057c0,1.211,0.375,2.209,1.123,2.995
		c0.748,0.787,1.691,1.181,2.831,1.181c0.663,0,1.296-0.117,1.896-0.353s1.175-0.59,1.728-1.065v2.062
		c-0.491,0.353-1.024,0.615-1.601,0.789c-0.577,0.173-1.203,0.26-1.877,0.26c-0.858,0-1.65-0.14-2.378-0.421
		s-1.368-0.694-1.919-1.241c-0.546-0.536-0.966-1.168-1.26-1.896c-0.293-0.729-0.44-1.503-0.44-2.325
		c0-0.823,0.146-1.595,0.44-2.317c0.294-0.723,0.719-1.357,1.276-1.904c0.557-0.551,1.195-0.969,1.916-1.252
		s1.499-0.426,2.336-0.426c0.66,0,1.288,0.097,1.885,0.288c0.598,0.191,1.177,0.48,1.739,0.868L22.972,52.329z"/>
	<path fill="#8E8E8E" d="M37.107,55.233c0,0.797-0.149,1.55-0.448,2.26s-0.734,1.343-1.307,1.899
		c-0.577,0.558-1.228,0.983-1.953,1.28c-0.726,0.296-1.486,0.443-2.283,0.443c-0.807,0-1.577-0.148-2.31-0.447
		c-0.732-0.299-1.38-0.725-1.942-1.276c-0.572-0.557-1.006-1.188-1.302-1.892c-0.296-0.705-0.445-1.461-0.445-2.268
		c0-0.802,0.148-1.558,0.445-2.269c0.296-0.709,0.73-1.345,1.302-1.907c0.572-0.557,1.22-0.98,1.946-1.271
		c0.725-0.291,1.494-0.437,2.306-0.437c0.807,0,1.572,0.146,2.295,0.437s1.37,0.715,1.941,1.271c0.572,0.567,1.008,1.207,1.307,1.92
		C36.958,53.689,37.107,54.441,37.107,55.233 M35.208,55.233c0-0.567-0.103-1.106-0.31-1.617s-0.505-0.965-0.893-1.363
		c-0.378-0.394-0.816-0.695-1.314-0.907c-0.499-0.212-1.022-0.318-1.575-0.318c-0.551,0-1.076,0.104-1.574,0.313
		c-0.499,0.21-0.941,0.514-1.33,0.912c-0.388,0.393-0.685,0.845-0.889,1.355c-0.204,0.512-0.306,1.053-0.306,1.625
		c0,0.566,0.103,1.103,0.306,1.608c0.204,0.506,0.501,0.957,0.889,1.355c0.388,0.399,0.83,0.703,1.326,0.912
		s1.021,0.314,1.578,0.314c0.547,0,1.066-0.105,1.559-0.314c0.494-0.209,0.937-0.513,1.33-0.912
		c0.388-0.398,0.686-0.851,0.893-1.359C35.104,56.33,35.208,55.795,35.208,55.233"/>
	<path fill="#8E8E8E" d="M39.576,60.818v-11.66l7.125,6.856c0.194,0.193,0.39,0.4,0.589,0.621c0.199,0.219,0.409,0.467,0.629,0.742
		v-7.775h1.685v11.652l-7.27-6.979c-0.194-0.189-0.381-0.389-0.563-0.598c-0.182-0.21-0.354-0.429-0.517-0.659v7.8H39.576z"/>
	<path fill="#8E8E8E" d="M51.91,58.573l1.456-0.674c0.138,0.5,0.391,0.882,0.758,1.146c0.368,0.263,0.838,0.394,1.409,0.394
		c0.542,0,0.972-0.15,1.291-0.451c0.319-0.302,0.479-0.705,0.479-1.211c0-0.659-0.546-1.246-1.64-1.762
		c-0.153-0.077-0.271-0.133-0.352-0.169c-1.236-0.603-2.06-1.147-2.471-1.635c-0.411-0.488-0.617-1.085-0.617-1.789
		c0-0.914,0.311-1.655,0.931-2.223c0.621-0.566,1.434-0.85,2.44-0.85c0.827,0,1.52,0.16,2.076,0.479s0.942,0.777,1.157,1.375
		l-1.425,0.734c-0.225-0.352-0.472-0.61-0.739-0.773c-0.268-0.163-0.576-0.245-0.923-0.245c-0.49,0-0.88,0.127-1.168,0.383
		c-0.289,0.256-0.434,0.598-0.434,1.026c0,0.675,0.635,1.304,1.901,1.885c0.097,0.046,0.173,0.082,0.229,0.107
		c1.107,0.511,1.869,1.011,2.283,1.498c0.414,0.487,0.62,1.097,0.62,1.826c0,1.063-0.334,1.907-1.004,2.533
		c-0.669,0.626-1.572,0.938-2.712,0.938c-0.955,0-1.737-0.219-2.348-0.658C52.5,60.019,52.1,59.391,51.91,58.573"/>
	<polygon fill="#8E8E8E" points="65.165,51.149 65.165,60.818 63.342,60.818 63.342,51.149 60.363,51.149 60.363,49.603 
		68.13,49.603 68.13,51.149 	"/>
	<path fill="#8E8E8E" d="M71.609,55.8v5.019H69.9V49.603h2.544c0.745,0,1.323,0.048,1.735,0.146
		c0.411,0.097,0.762,0.258,1.053,0.482c0.347,0.271,0.615,0.62,0.805,1.05c0.189,0.429,0.284,0.898,0.284,1.409
		c0,0.899-0.217,1.604-0.652,2.111c-0.433,0.508-1.074,0.813-1.922,0.915l3.86,5.103h-2.06L71.815,55.8H71.609z M71.724,54.383
		h0.329c0.966,0,1.606-0.112,1.923-0.338c0.316-0.224,0.474-0.622,0.474-1.194c0-0.618-0.168-1.054-0.509-1.306
		c-0.339-0.253-0.969-0.38-1.889-0.38h-0.329V54.383z"/>
	<path fill="#8E8E8E" d="M79.019,49.603h1.8v6.811c0,1.011,0.233,1.771,0.701,2.279c0.468,0.508,1.166,0.762,2.095,0.762
		c0.925,0,1.62-0.254,2.088-0.762c0.467-0.509,0.701-1.269,0.701-2.279v-6.811h1.823v6.979c0,1.518-0.383,2.652-1.149,3.406
		c-0.767,0.753-1.92,1.129-3.463,1.129s-2.694-0.375-3.455-1.126c-0.761-0.751-1.141-1.887-1.141-3.409V49.603z"/>
	<path fill="#8E8E8E" d="M100.117,52.329c-0.516-0.439-1.061-0.768-1.636-0.988c-0.574-0.219-1.178-0.329-1.813-0.329
		c-1.225,0-2.222,0.394-2.991,1.18c-0.768,0.787-1.153,1.806-1.153,3.057c0,1.211,0.374,2.209,1.122,2.995
		c0.748,0.787,1.692,1.181,2.831,1.181c0.664,0,1.296-0.117,1.896-0.353c0.601-0.235,1.176-0.59,1.729-1.065v2.062
		c-0.49,0.353-1.024,0.615-1.602,0.789c-0.577,0.173-1.203,0.26-1.877,0.26c-0.857,0-1.651-0.14-2.379-0.421
		s-1.368-0.694-1.919-1.241c-0.546-0.536-0.967-1.168-1.26-1.896c-0.293-0.729-0.44-1.503-0.44-2.325
		c0-0.823,0.147-1.595,0.44-2.317s0.719-1.357,1.276-1.904c0.557-0.551,1.195-0.969,1.915-1.252s1.498-0.426,2.336-0.426
		c0.66,0,1.287,0.097,1.885,0.288s1.178,0.48,1.739,0.868L100.117,52.329z"/>
	<path fill="#8E8E8E" d="M102.754,60.818v-11.66l7.125,6.856c0.193,0.193,0.392,0.4,0.59,0.621c0.199,0.219,0.408,0.467,0.628,0.742
		v-7.775h1.686v11.652l-7.271-6.979c-0.193-0.189-0.381-0.389-0.563-0.598c-0.181-0.21-0.354-0.429-0.517-0.659v7.8H102.754z"/>
	<path fill="#8E8E8E" d="M127.231,55.233c0,0.797-0.149,1.55-0.448,2.26s-0.734,1.343-1.306,1.899
		c-0.577,0.558-1.229,0.983-1.953,1.28c-0.727,0.296-1.486,0.443-2.283,0.443c-0.808,0-1.577-0.148-2.31-0.447
		c-0.733-0.299-1.381-0.725-1.942-1.276c-0.572-0.557-1.007-1.188-1.303-1.892c-0.296-0.705-0.445-1.461-0.445-2.268
		c0-0.802,0.149-1.558,0.445-2.269c0.296-0.709,0.73-1.345,1.303-1.907c0.572-0.557,1.221-0.98,1.945-1.271
		c0.726-0.291,1.494-0.437,2.307-0.437c0.807,0,1.571,0.146,2.294,0.437s1.37,0.715,1.942,1.271c0.571,0.567,1.007,1.207,1.306,1.92
		C127.082,53.689,127.231,54.441,127.231,55.233 M125.331,55.233c0-0.567-0.103-1.106-0.31-1.617s-0.504-0.965-0.894-1.363
		c-0.377-0.394-0.814-0.695-1.313-0.907c-0.497-0.212-1.022-0.318-1.573-0.318c-0.552,0-1.076,0.104-1.575,0.313
		c-0.497,0.21-0.94,0.514-1.329,0.912c-0.388,0.393-0.684,0.845-0.888,1.355c-0.205,0.512-0.308,1.053-0.308,1.625
		c0,0.566,0.103,1.103,0.308,1.608c0.204,0.506,0.5,0.957,0.888,1.355c0.389,0.399,0.83,0.703,1.325,0.912
		c0.496,0.209,1.022,0.314,1.579,0.314c0.546,0,1.065-0.105,1.558-0.314c0.493-0.209,0.937-0.513,1.329-0.912
		c0.39-0.398,0.687-0.851,0.894-1.359C125.229,56.33,125.331,55.795,125.331,55.233"/>
	<path fill="#8E8E8E" d="M132.985,61.255l-5.002-11.652h1.893l2.513,5.976c0.147,0.347,0.271,0.668,0.367,0.962
		c0.097,0.293,0.174,0.573,0.229,0.838c0.066-0.28,0.151-0.572,0.254-0.873c0.102-0.303,0.222-0.61,0.359-0.927l2.505-5.976h1.885
		L132.985,61.255z"/>
	<path fill="#8E8E8E" d="M146.631,60.818l-1.271-2.889h-4.443l-1.303,2.889h-1.915l5.432-11.66l5.424,11.66H146.631z M141.59,56.413
		h3.126l-1.149-2.56c-0.065-0.163-0.136-0.35-0.207-0.563c-0.071-0.212-0.143-0.448-0.214-0.709
		c-0.062,0.246-0.126,0.475-0.195,0.687s-0.14,0.407-0.211,0.585L141.59,56.413z"/>
	<path fill="#8E8E8E" d="M152.752,58.573l1.455-0.674c0.138,0.5,0.391,0.882,0.759,1.146c0.367,0.263,0.838,0.394,1.409,0.394
		c0.542,0,0.972-0.15,1.291-0.451c0.319-0.302,0.479-0.705,0.479-1.211c0-0.659-0.546-1.246-1.64-1.762
		c-0.152-0.077-0.271-0.133-0.352-0.169c-1.236-0.603-2.059-1.147-2.471-1.635c-0.411-0.488-0.617-1.085-0.617-1.789
		c0-0.914,0.311-1.655,0.931-2.223c0.621-0.566,1.435-0.85,2.44-0.85c0.827,0,1.52,0.16,2.076,0.479s0.942,0.777,1.156,1.375
		l-1.424,0.734c-0.226-0.352-0.472-0.61-0.74-0.773c-0.268-0.163-0.576-0.245-0.923-0.245c-0.49,0-0.88,0.127-1.169,0.383
		c-0.288,0.256-0.433,0.598-0.433,1.026c0,0.675,0.634,1.304,1.9,1.885c0.097,0.046,0.173,0.082,0.229,0.107
		c1.108,0.511,1.869,1.011,2.283,1.498c0.413,0.487,0.62,1.097,0.62,1.826c0,1.063-0.334,1.907-1.003,2.533
		s-1.573,0.938-2.712,0.938c-0.955,0-1.738-0.219-2.349-0.658S152.94,59.391,152.752,58.573"/>
	<path fill="#8E8E8E" d="M162.795,59.968c0-0.281,0.097-0.521,0.29-0.721c0.194-0.199,0.433-0.298,0.713-0.298
		c0.281,0,0.519,0.099,0.714,0.298c0.193,0.199,0.29,0.439,0.29,0.721c0,0.275-0.097,0.51-0.29,0.701
		c-0.195,0.191-0.433,0.286-0.714,0.286c-0.28,0-0.519-0.095-0.713-0.286C162.892,60.478,162.795,60.243,162.795,59.968"/>
	<path fill="#8E8E8E" d="M175.85,60.818l-1.271-2.889h-4.444l-1.302,2.889h-1.915l5.432-11.66l5.423,11.66H175.85z M170.809,56.413
		h3.126l-1.149-2.56c-0.066-0.163-0.136-0.35-0.207-0.563c-0.071-0.212-0.143-0.448-0.214-0.709
		c-0.062,0.246-0.127,0.475-0.196,0.687c-0.068,0.212-0.139,0.407-0.211,0.585L170.809,56.413z"/>
	<path fill="#8E8E8E" d="M179.895,59.968c0-0.281,0.098-0.521,0.291-0.721c0.194-0.199,0.432-0.298,0.713-0.298
		c0.28,0,0.519,0.099,0.712,0.298c0.194,0.199,0.291,0.439,0.291,0.721c0,0.275-0.097,0.51-0.291,0.701
		c-0.193,0.191-0.432,0.286-0.712,0.286c-0.281,0-0.519-0.095-0.713-0.286C179.992,60.478,179.895,60.243,179.895,59.968"/>
	<polygon fill="#8E8E8E" points="114.325,15.906 114.325,28.981 101.251,41.62 101.251,15.906 	"/>
	<polygon fill="#8E8E8E" points="84.253,28.981 84.253,15.906 97.328,3.268 97.328,28.981 	"/>
	<path fill="#8E8E8E" d="M44.27,69.061v-3.738h0.819c0.534,0,0.909,0.026,1.125,0.08c0.217,0.054,0.408,0.144,0.571,0.27
		c0.216,0.165,0.38,0.377,0.492,0.636c0.111,0.259,0.167,0.555,0.167,0.886c0,0.332-0.055,0.626-0.167,0.883
		c-0.112,0.256-0.276,0.468-0.492,0.634c-0.164,0.127-0.35,0.217-0.558,0.271c-0.208,0.053-0.533,0.08-0.975,0.08h-0.164H44.27z
		 M44.877,68.511h0.511c0.281,0,0.492-0.018,0.632-0.056c0.141-0.037,0.263-0.101,0.367-0.188c0.141-0.121,0.247-0.271,0.318-0.451
		s0.105-0.389,0.105-0.626c0-0.239-0.035-0.448-0.105-0.628s-0.177-0.329-0.318-0.45c-0.106-0.089-0.232-0.151-0.38-0.189
		c-0.146-0.037-0.377-0.056-0.69-0.056h-0.22h-0.219V68.511z"/>
	<rect x="48.481" y="65.322" fill="#8E8E8E" width="0.607" height="3.738"/>
	<path fill="#8E8E8E" d="M51.479,69.206l-1.667-3.884h0.631l0.837,1.991c0.049,0.116,0.09,0.223,0.123,0.32
		c0.032,0.099,0.058,0.191,0.077,0.28c0.022-0.094,0.05-0.191,0.084-0.291c0.034-0.101,0.074-0.204,0.12-0.31l0.835-1.991h0.628
		L51.479,69.206z"/>
	<rect x="53.864" y="65.322" fill="#8E8E8E" width="0.608" height="3.738"/>
	<path fill="#8E8E8E" d="M55.46,68.313l0.485-0.225c0.046,0.166,0.13,0.293,0.253,0.381c0.122,0.089,0.279,0.132,0.47,0.132
		c0.18,0,0.324-0.05,0.43-0.15c0.106-0.101,0.16-0.235,0.16-0.403c0-0.219-0.183-0.415-0.546-0.587
		c-0.051-0.026-0.09-0.045-0.118-0.057c-0.412-0.201-0.687-0.383-0.824-0.545c-0.137-0.163-0.206-0.361-0.206-0.597
		c0-0.305,0.104-0.552,0.311-0.741c0.207-0.188,0.478-0.283,0.813-0.283c0.276,0,0.507,0.054,0.692,0.16s0.314,0.259,0.385,0.458
		l-0.475,0.245c-0.075-0.117-0.157-0.203-0.247-0.258c-0.089-0.055-0.192-0.082-0.307-0.082c-0.164,0-0.293,0.043-0.39,0.128
		c-0.096,0.085-0.145,0.199-0.145,0.343c0,0.225,0.212,0.434,0.634,0.628c0.032,0.015,0.058,0.026,0.077,0.036
		c0.369,0.17,0.623,0.336,0.76,0.498c0.138,0.163,0.207,0.366,0.207,0.609c0,0.354-0.111,0.636-0.334,0.845
		c-0.223,0.208-0.524,0.313-0.904,0.313c-0.318,0-0.579-0.073-0.783-0.22S55.523,68.585,55.46,68.313"/>
	<rect x="58.884" y="65.322" fill="#8E8E8E" width="0.608" height="3.738"/>
	<path fill="#8E8E8E" d="M64.528,67.199c0,0.266-0.05,0.517-0.149,0.753s-0.245,0.447-0.435,0.634
		c-0.193,0.186-0.41,0.327-0.652,0.426c-0.241,0.099-0.494,0.148-0.76,0.148c-0.269,0-0.525-0.05-0.77-0.149
		c-0.245-0.1-0.461-0.241-0.647-0.425c-0.19-0.187-0.335-0.396-0.434-0.632c-0.1-0.234-0.148-0.486-0.148-0.755
		c0-0.268,0.049-0.52,0.148-0.756c0.099-0.237,0.244-0.449,0.434-0.637c0.191-0.186,0.406-0.326,0.648-0.423
		c0.242-0.098,0.498-0.146,0.769-0.146c0.27,0,0.524,0.049,0.765,0.146c0.241,0.097,0.457,0.237,0.647,0.423
		c0.19,0.189,0.335,0.402,0.435,0.641C64.478,66.684,64.528,66.936,64.528,67.199 M63.895,67.199c0-0.189-0.034-0.369-0.103-0.539
		c-0.069-0.171-0.168-0.321-0.298-0.455c-0.126-0.131-0.272-0.231-0.438-0.302c-0.166-0.071-0.341-0.106-0.525-0.106
		c-0.184,0-0.359,0.035-0.525,0.104c-0.166,0.07-0.313,0.171-0.443,0.304c-0.129,0.132-0.228,0.282-0.296,0.452
		c-0.068,0.17-0.103,0.351-0.103,0.542c0,0.188,0.034,0.367,0.103,0.536c0.068,0.169,0.167,0.319,0.296,0.452
		s0.277,0.233,0.442,0.304c0.165,0.069,0.34,0.104,0.526,0.104c0.183,0,0.355-0.035,0.52-0.104c0.165-0.07,0.313-0.171,0.443-0.304
		c0.13-0.133,0.229-0.284,0.298-0.453C63.86,67.564,63.895,67.387,63.895,67.199 M62.171,64.954l0.484-0.694h0.576l-0.746,0.694
		H62.171z"/>
	<path fill="#8E8E8E" d="M65.555,69.061v-3.887l2.375,2.286c0.065,0.063,0.131,0.133,0.197,0.206
		c0.066,0.073,0.136,0.156,0.209,0.248v-2.592h0.562v3.884l-2.424-2.326c-0.064-0.063-0.127-0.13-0.188-0.199
		c-0.061-0.07-0.118-0.143-0.172-0.22v2.6H65.555z"/>
	<path fill="#8E8E8E" d="M74.993,66.231c-0.172-0.146-0.354-0.256-0.545-0.33c-0.191-0.073-0.393-0.109-0.604-0.109
		c-0.409,0-0.741,0.131-0.997,0.394c-0.256,0.262-0.384,0.602-0.384,1.019c0,0.403,0.125,0.736,0.374,0.998
		c0.25,0.263,0.564,0.394,0.944,0.394c0.221,0,0.432-0.039,0.632-0.117c0.2-0.078,0.392-0.197,0.576-0.355v0.688
		c-0.164,0.117-0.342,0.205-0.535,0.263c-0.192,0.059-0.4,0.087-0.625,0.087c-0.286,0-0.551-0.047-0.793-0.141
		s-0.456-0.231-0.64-0.414c-0.182-0.178-0.322-0.389-0.42-0.632c-0.098-0.242-0.146-0.501-0.146-0.774
		c0-0.274,0.049-0.532,0.146-0.772c0.098-0.241,0.24-0.453,0.425-0.635c0.186-0.184,0.398-0.322,0.638-0.418
		c0.24-0.095,0.5-0.142,0.779-0.142c0.219,0,0.429,0.032,0.628,0.096c0.199,0.064,0.393,0.16,0.58,0.29L74.993,66.231z"/>
	<path fill="#8E8E8E" d="M79.908,67.199c0,0.266-0.049,0.517-0.149,0.753c-0.099,0.236-0.245,0.448-0.436,0.634
		c-0.192,0.186-0.409,0.327-0.651,0.426c-0.242,0.099-0.495,0.148-0.761,0.148c-0.269,0-0.526-0.05-0.77-0.149
		c-0.245-0.1-0.46-0.241-0.647-0.425c-0.191-0.186-0.335-0.396-0.434-0.632c-0.099-0.234-0.148-0.486-0.148-0.755
		c0-0.268,0.05-0.52,0.148-0.756c0.099-0.237,0.243-0.449,0.434-0.637c0.19-0.186,0.407-0.326,0.649-0.423
		c0.241-0.098,0.498-0.146,0.768-0.146c0.269,0,0.524,0.049,0.765,0.146c0.241,0.097,0.457,0.237,0.647,0.423
		c0.191,0.189,0.336,0.402,0.436,0.641C79.859,66.685,79.908,66.936,79.908,67.199 M79.275,67.199c0-0.189-0.035-0.369-0.104-0.539
		c-0.069-0.171-0.168-0.321-0.298-0.455c-0.125-0.131-0.271-0.231-0.437-0.302c-0.166-0.071-0.341-0.106-0.525-0.106
		c-0.184,0-0.359,0.035-0.525,0.104c-0.166,0.07-0.313,0.171-0.442,0.304c-0.13,0.132-0.229,0.282-0.297,0.452
		s-0.102,0.351-0.102,0.542c0,0.188,0.034,0.367,0.102,0.536s0.167,0.319,0.297,0.452c0.129,0.132,0.276,0.233,0.441,0.304
		c0.165,0.069,0.34,0.104,0.526,0.104c0.182,0,0.355-0.035,0.519-0.104c0.165-0.07,0.313-0.172,0.443-0.304
		c0.13-0.133,0.229-0.284,0.298-0.453C79.241,67.564,79.275,67.387,79.275,67.199"/>
	<path fill="#8E8E8E" d="M80.936,69.061v-3.887l2.375,2.286c0.065,0.063,0.131,0.133,0.196,0.206
		c0.067,0.073,0.136,0.156,0.21,0.248v-2.592h0.562v3.884l-2.423-2.326c-0.065-0.063-0.128-0.13-0.188-0.199
		c-0.06-0.07-0.117-0.143-0.172-0.22v2.6H80.936z"/>
	<path fill="#8E8E8E" d="M85.251,68.313l0.484-0.225c0.046,0.166,0.131,0.293,0.253,0.381c0.123,0.089,0.279,0.132,0.47,0.132
		c0.18,0,0.324-0.05,0.43-0.15s0.16-0.235,0.16-0.403c0-0.219-0.182-0.415-0.546-0.587c-0.051-0.026-0.09-0.045-0.117-0.057
		c-0.412-0.201-0.687-0.383-0.824-0.545c-0.137-0.163-0.206-0.361-0.206-0.597c0-0.305,0.103-0.552,0.31-0.741
		c0.207-0.188,0.479-0.283,0.814-0.283c0.275,0,0.506,0.054,0.691,0.16s0.314,0.259,0.386,0.458l-0.475,0.245
		c-0.075-0.117-0.157-0.203-0.247-0.258s-0.192-0.082-0.308-0.082c-0.164,0-0.294,0.043-0.39,0.128
		c-0.097,0.085-0.144,0.199-0.144,0.343c0,0.225,0.211,0.434,0.633,0.628c0.033,0.015,0.058,0.026,0.077,0.036
		c0.37,0.17,0.624,0.336,0.761,0.498c0.138,0.163,0.207,0.366,0.207,0.609c0,0.354-0.112,0.636-0.335,0.845
		c-0.223,0.208-0.524,0.313-0.904,0.313c-0.318,0-0.579-0.073-0.783-0.22C85.447,68.794,85.314,68.585,85.251,68.313"/>
	<polygon fill="#8E8E8E" points="89.873,65.838 89.873,69.061 89.265,69.061 89.265,65.838 88.272,65.838 88.272,65.322 
		90.861,65.322 90.861,65.838 	"/>
	<path fill="#8E8E8E" d="M92.225,67.388v1.673h-0.569v-3.738h0.848c0.248,0,0.441,0.016,0.579,0.048
		c0.136,0.033,0.253,0.087,0.351,0.161c0.115,0.09,0.205,0.208,0.268,0.35c0.063,0.144,0.095,0.301,0.095,0.471
		c0,0.3-0.073,0.534-0.218,0.703c-0.144,0.169-0.357,0.271-0.641,0.305l1.288,1.701h-0.688l-1.244-1.673H92.225z M92.263,66.915
		h0.11c0.321,0,0.536-0.037,0.641-0.112c0.106-0.074,0.158-0.207,0.158-0.398c0-0.205-0.056-0.351-0.169-0.435
		c-0.114-0.085-0.323-0.127-0.63-0.127h-0.11V66.915z"/>
	<path fill="#8E8E8E" d="M94.898,65.322h0.601v2.27c0,0.338,0.078,0.591,0.233,0.76s0.388,0.254,0.698,0.254
		c0.309,0,0.54-0.085,0.695-0.254c0.156-0.169,0.234-0.422,0.234-0.76v-2.27h0.607v2.326c0,0.505-0.127,0.884-0.383,1.135
		c-0.256,0.252-0.641,0.377-1.154,0.377s-0.897-0.125-1.151-0.375c-0.253-0.251-0.381-0.63-0.381-1.137V65.322z"/>
	<path fill="#8E8E8E" d="M102.136,66.231c-0.172-0.146-0.354-0.256-0.545-0.33c-0.191-0.073-0.394-0.109-0.604-0.109
		c-0.409,0-0.741,0.131-0.998,0.394c-0.256,0.262-0.384,0.602-0.384,1.019c0,0.403,0.124,0.736,0.374,0.998
		c0.249,0.263,0.563,0.394,0.943,0.394c0.222,0,0.432-0.039,0.632-0.117s0.393-0.197,0.576-0.355v0.688
		c-0.164,0.117-0.342,0.205-0.534,0.263c-0.192,0.059-0.4,0.087-0.626,0.087c-0.285,0-0.55-0.047-0.792-0.141
		c-0.244-0.094-0.456-0.231-0.641-0.414c-0.182-0.178-0.321-0.389-0.42-0.632c-0.098-0.242-0.146-0.501-0.146-0.774
		c0-0.274,0.049-0.532,0.146-0.772c0.099-0.241,0.24-0.453,0.426-0.635c0.186-0.184,0.398-0.322,0.639-0.418
		c0.239-0.095,0.499-0.142,0.778-0.142c0.22,0,0.43,0.032,0.628,0.096c0.199,0.064,0.393,0.16,0.58,0.29L102.136,66.231z"/>
	<path fill="#8E8E8E" d="M106.219,66.231c-0.172-0.146-0.354-0.256-0.545-0.33c-0.191-0.073-0.393-0.109-0.604-0.109
		c-0.409,0-0.741,0.131-0.997,0.394c-0.257,0.262-0.385,0.602-0.385,1.019c0,0.403,0.125,0.736,0.374,0.998
		c0.249,0.263,0.564,0.394,0.943,0.394c0.222,0,0.432-0.039,0.633-0.117c0.199-0.078,0.392-0.197,0.575-0.355v0.688
		c-0.163,0.117-0.341,0.205-0.534,0.263c-0.191,0.059-0.4,0.087-0.625,0.087c-0.286,0-0.551-0.047-0.793-0.141
		c-0.243-0.094-0.456-0.231-0.64-0.414c-0.183-0.178-0.322-0.389-0.42-0.632c-0.098-0.242-0.147-0.501-0.147-0.774
		c0-0.274,0.05-0.532,0.147-0.772c0.098-0.241,0.239-0.453,0.425-0.635c0.186-0.184,0.398-0.322,0.639-0.418
		c0.24-0.095,0.5-0.142,0.778-0.142c0.221,0,0.43,0.032,0.629,0.096c0.2,0.064,0.393,0.16,0.579,0.29L106.219,66.231z"/>
	<rect x="107.313" y="65.322" fill="#8E8E8E" width="0.607" height="3.738"/>
	<path fill="#8E8E8E" d="M112.955,67.199c0,0.266-0.05,0.517-0.149,0.753s-0.244,0.448-0.435,0.634
		c-0.193,0.186-0.41,0.327-0.651,0.426c-0.242,0.099-0.495,0.148-0.762,0.148c-0.269,0-0.525-0.05-0.77-0.149
		s-0.46-0.241-0.647-0.425c-0.19-0.186-0.335-0.396-0.434-0.632c-0.1-0.234-0.147-0.486-0.147-0.755c0-0.268,0.048-0.52,0.147-0.756
		c0.099-0.237,0.243-0.449,0.434-0.637c0.191-0.186,0.407-0.326,0.649-0.423c0.241-0.098,0.497-0.146,0.768-0.146
		c0.27,0,0.524,0.049,0.766,0.146c0.24,0.097,0.456,0.237,0.647,0.423c0.19,0.189,0.335,0.402,0.435,0.641
		C112.905,66.685,112.955,66.936,112.955,67.199 M112.322,67.199c0-0.189-0.034-0.369-0.104-0.539
		c-0.069-0.171-0.168-0.321-0.298-0.455c-0.126-0.131-0.271-0.231-0.438-0.302c-0.166-0.071-0.341-0.106-0.525-0.106
		c-0.184,0-0.358,0.035-0.524,0.104c-0.165,0.07-0.313,0.171-0.442,0.304c-0.13,0.132-0.229,0.282-0.297,0.452
		s-0.103,0.351-0.103,0.542c0,0.188,0.034,0.367,0.103,0.536s0.167,0.319,0.297,0.452c0.129,0.132,0.276,0.233,0.441,0.304
		c0.165,0.069,0.34,0.104,0.525,0.104c0.183,0,0.355-0.035,0.52-0.104c0.165-0.07,0.313-0.172,0.443-0.304
		c0.13-0.133,0.229-0.284,0.298-0.453C112.288,67.564,112.322,67.387,112.322,67.199"/>
	<path fill="#8E8E8E" d="M113.982,69.061v-3.887l2.374,2.286c0.065,0.063,0.131,0.133,0.197,0.206s0.136,0.156,0.209,0.248v-2.592
		h0.563v3.884l-2.424-2.326c-0.064-0.063-0.128-0.13-0.188-0.199c-0.061-0.07-0.118-0.143-0.172-0.22v2.6H113.982z"/>
	<polygon fill="#8E8E8E" points="118.513,69.061 118.513,65.322 120.599,65.322 120.599,65.838 119.121,65.838 119.121,66.775 
		120.599,66.775 120.599,67.309 119.121,67.309 119.121,68.517 120.599,68.517 120.599,69.061 	"/>
	<path fill="#8E8E8E" d="M121.411,68.313l0.485-0.225c0.046,0.166,0.13,0.293,0.253,0.381c0.122,0.089,0.278,0.132,0.47,0.132
		c0.18,0,0.323-0.05,0.43-0.15s0.16-0.235,0.16-0.403c0-0.219-0.183-0.415-0.547-0.587c-0.051-0.026-0.09-0.045-0.117-0.057
		c-0.412-0.201-0.687-0.383-0.824-0.545c-0.137-0.163-0.205-0.361-0.205-0.597c0-0.305,0.104-0.552,0.311-0.741
		c0.208-0.188,0.478-0.283,0.813-0.283c0.276,0,0.507,0.054,0.692,0.16s0.314,0.259,0.386,0.458l-0.475,0.245
		c-0.075-0.117-0.157-0.203-0.247-0.258c-0.089-0.055-0.191-0.082-0.308-0.082c-0.163,0-0.293,0.043-0.389,0.128
		c-0.097,0.085-0.145,0.199-0.145,0.343c0,0.225,0.212,0.434,0.634,0.628c0.032,0.015,0.058,0.026,0.077,0.036
		c0.368,0.17,0.622,0.336,0.76,0.498c0.138,0.163,0.206,0.366,0.206,0.609c0,0.354-0.11,0.636-0.334,0.845
		c-0.223,0.208-0.523,0.313-0.903,0.313c-0.318,0-0.579-0.073-0.783-0.22C121.607,68.794,121.474,68.585,121.411,68.313"/>
	<path fill="#8E8E8E" d="M127.537,69.061V67.35l-1.26-2.027h0.639l0.785,1.269c0.018,0.032,0.042,0.075,0.069,0.128
		c0.028,0.053,0.057,0.11,0.085,0.171c0.024-0.06,0.05-0.115,0.076-0.168s0.054-0.102,0.083-0.146l0.805-1.254h0.607l-1.287,2.027
		v1.711H127.537z"/>
	<path fill="#8E8E8E" d="M131.855,68.313l0.484-0.225c0.047,0.166,0.132,0.293,0.254,0.381c0.123,0.089,0.279,0.132,0.47,0.132
		c0.181,0,0.324-0.05,0.431-0.15s0.159-0.235,0.159-0.403c0-0.219-0.183-0.415-0.546-0.587c-0.052-0.026-0.091-0.045-0.118-0.057
		c-0.411-0.201-0.686-0.383-0.823-0.545c-0.138-0.163-0.205-0.361-0.205-0.597c0-0.305,0.103-0.552,0.31-0.741
		c0.207-0.188,0.478-0.283,0.813-0.283c0.276,0,0.507,0.054,0.692,0.16s0.313,0.259,0.385,0.458l-0.475,0.245
		c-0.074-0.117-0.157-0.203-0.246-0.258c-0.09-0.055-0.191-0.082-0.308-0.082c-0.164,0-0.294,0.043-0.39,0.128
		s-0.145,0.199-0.145,0.343c0,0.225,0.211,0.434,0.634,0.628c0.032,0.015,0.058,0.026,0.076,0.036
		c0.369,0.17,0.623,0.336,0.762,0.498c0.137,0.163,0.206,0.366,0.206,0.609c0,0.354-0.111,0.636-0.334,0.845
		c-0.224,0.208-0.524,0.313-0.904,0.313c-0.318,0-0.579-0.073-0.783-0.22C132.052,68.794,131.919,68.585,131.855,68.313"/>
	<polygon fill="#8E8E8E" points="135.271,69.061 135.271,65.322 137.356,65.322 137.356,65.838 135.877,65.838 135.877,66.775 
		137.356,66.775 137.356,67.309 135.877,67.309 135.877,68.517 137.356,68.517 137.356,69.061 	"/>
	<path fill="#8E8E8E" d="M138.952,67.388v1.673h-0.569v-3.738h0.848c0.249,0,0.441,0.016,0.578,0.048
		c0.137,0.033,0.255,0.087,0.352,0.161c0.116,0.09,0.205,0.208,0.268,0.35c0.063,0.144,0.095,0.301,0.095,0.471
		c0,0.3-0.072,0.534-0.217,0.703s-0.358,0.271-0.641,0.305l1.286,1.701h-0.687l-1.243-1.673H138.952z M138.99,66.915h0.11
		c0.321,0,0.535-0.037,0.641-0.112c0.105-0.074,0.158-0.207,0.158-0.398c0-0.205-0.057-0.351-0.17-0.435
		c-0.113-0.085-0.322-0.127-0.629-0.127h-0.11V66.915z"/>
	<path fill="#8E8E8E" d="M142.828,69.206l-1.667-3.884h0.631l0.837,1.991c0.05,0.116,0.091,0.223,0.123,0.32
		c0.032,0.099,0.058,0.191,0.076,0.28c0.022-0.094,0.051-0.191,0.085-0.291c0.034-0.101,0.073-0.204,0.12-0.31l0.835-1.991h0.628
		L142.828,69.206z"/>
	<rect x="145.214" y="65.322" fill="#8E8E8E" width="0.606" height="3.738"/>
	<path fill="#8E8E8E" d="M150.024,66.231c-0.172-0.146-0.354-0.256-0.545-0.33c-0.191-0.073-0.393-0.109-0.604-0.109
		c-0.409,0-0.741,0.131-0.997,0.394c-0.257,0.262-0.385,0.602-0.385,1.019c0,0.403,0.125,0.736,0.374,0.998
		c0.25,0.263,0.564,0.394,0.943,0.394c0.222,0,0.432-0.039,0.633-0.117c0.199-0.078,0.392-0.197,0.575-0.355v0.688
		c-0.163,0.117-0.341,0.205-0.533,0.263c-0.192,0.059-0.401,0.087-0.626,0.087c-0.286,0-0.551-0.047-0.793-0.141
		s-0.455-0.231-0.64-0.414c-0.183-0.178-0.322-0.389-0.42-0.632c-0.098-0.242-0.147-0.501-0.147-0.774
		c0-0.274,0.05-0.532,0.147-0.772c0.098-0.241,0.239-0.453,0.425-0.635c0.186-0.184,0.398-0.322,0.639-0.418
		c0.24-0.095,0.5-0.142,0.779-0.142c0.22,0,0.429,0.032,0.628,0.096c0.2,0.064,0.393,0.16,0.579,0.29L150.024,66.231z"/>
	<rect x="151.118" y="65.322" fill="#8E8E8E" width="0.607" height="3.738"/>
	<path fill="#8E8E8E" d="M156.762,67.199c0,0.266-0.05,0.517-0.149,0.753s-0.244,0.448-0.436,0.634
		c-0.192,0.186-0.409,0.327-0.651,0.426c-0.241,0.099-0.495,0.148-0.761,0.148c-0.27,0-0.525-0.05-0.771-0.149
		c-0.243-0.1-0.46-0.241-0.646-0.425c-0.19-0.186-0.335-0.396-0.435-0.632c-0.099-0.234-0.147-0.486-0.147-0.755
		c0-0.268,0.049-0.52,0.147-0.756c0.1-0.237,0.244-0.449,0.435-0.637c0.19-0.186,0.407-0.326,0.648-0.423
		c0.242-0.098,0.498-0.146,0.769-0.146c0.27,0,0.524,0.049,0.765,0.146c0.241,0.097,0.457,0.237,0.647,0.423
		c0.191,0.189,0.336,0.402,0.436,0.641C156.712,66.685,156.762,66.936,156.762,67.199 M156.128,67.199
		c0-0.189-0.034-0.369-0.104-0.539c-0.068-0.171-0.168-0.321-0.297-0.455c-0.126-0.131-0.271-0.231-0.438-0.302
		c-0.167-0.071-0.342-0.106-0.525-0.106s-0.358,0.035-0.524,0.104c-0.167,0.07-0.313,0.171-0.443,0.304
		c-0.129,0.132-0.228,0.282-0.296,0.452s-0.103,0.351-0.103,0.542c0,0.188,0.034,0.367,0.103,0.536s0.167,0.319,0.296,0.452
		c0.13,0.132,0.276,0.233,0.441,0.304c0.166,0.069,0.341,0.104,0.526,0.104c0.183,0,0.355-0.035,0.52-0.104
		c0.164-0.07,0.313-0.172,0.443-0.304c0.129-0.133,0.229-0.284,0.297-0.453C156.094,67.564,156.128,67.387,156.128,67.199"/>
	<path fill="#8E8E8E" d="M157.574,68.313l0.485-0.225c0.045,0.166,0.129,0.293,0.252,0.381c0.123,0.089,0.279,0.132,0.47,0.132
		c0.181,0,0.324-0.05,0.431-0.15s0.16-0.235,0.16-0.403c0-0.219-0.183-0.415-0.547-0.587c-0.051-0.026-0.091-0.045-0.118-0.057
		c-0.412-0.201-0.687-0.383-0.823-0.545c-0.137-0.163-0.205-0.361-0.205-0.597c0-0.305,0.103-0.552,0.31-0.741
		c0.207-0.188,0.479-0.283,0.813-0.283c0.276,0,0.507,0.054,0.692,0.16s0.314,0.259,0.386,0.458l-0.475,0.245
		c-0.076-0.117-0.157-0.203-0.247-0.258s-0.192-0.082-0.308-0.082c-0.163,0-0.293,0.043-0.39,0.128s-0.145,0.199-0.145,0.343
		c0,0.225,0.211,0.434,0.634,0.628c0.032,0.015,0.058,0.026,0.077,0.036c0.369,0.17,0.623,0.336,0.76,0.498
		c0.139,0.163,0.208,0.366,0.208,0.609c0,0.354-0.112,0.636-0.335,0.845c-0.223,0.208-0.524,0.313-0.904,0.313
		c-0.318,0-0.579-0.073-0.782-0.22C157.77,68.794,157.637,68.585,157.574,68.313"/>
</g>
</svg>
