<?xml version="1.0" encoding="utf-8"?>
<!-- Generator: Adobe Illustrator 16.0.0, SVG Export Plug-In . SVG Version: 6.00 Build 0)  -->
<!DOCTYPE svg PUBLIC "-//W3C//DTD SVG 1.1//EN" "http://www.w3.org/Graphics/SVG/1.1/DTD/svg11.dtd">
<svg version="1.1" id="Capa_1" xmlns="http://www.w3.org/2000/svg" xmlns:xlink="http://www.w3.org/1999/xlink" x="0px" y="0px"
	 width="960px" height="959px" viewBox="0 0 960 959" enable-background="new 0 0 960 959" xml:space="preserve">
<path fill-rule="evenodd" clip-rule="evenodd" fill="#B03F0D" d="M217.29,416.164c-0.007-0.167-0.014-0.334-0.02-0.501
	c-0.222-1.119-0.326-2.236,0.056-3.346c0.021-0.732,0.044-1.465,0.065-2.198c0.406-2.028,0.069-4.08,0.209-6.115
	c0.051-0.737-0.367-1.574,0.368-2.203l-0.055,0.056c0.465-1.442-0.226-2.991,0.405-4.418l-0.006,0.017
	c0.506-1.629,0.079-3.302,0.246-4.944c0.076-0.751-0.349-1.587,0.339-2.247l-0.042,0.057c0.557-2.569,0.346-5.27,1.334-7.765
	c0.025-0.275,0.051-0.55,0.077-0.825c0.313-1.802,0.487-3.628,0.961-5.402l-0.012,0.018c0.321-1.609,0.35-3.274,0.921-4.836
	c0.133-0.098,0.149-0.211,0.048-0.342c0.415-2.294,0.313-4.698,1.457-6.837l-0.022,0.029c0.327-1.289,0.179-2.685,0.887-3.886
	c0.305-0.63-0.154-1.456,0.509-1.995c0.571-1.198,0.566-2.549,1.006-3.782c0.11-0.646-0.219-1.393,0.436-1.915
	c0.815-1.328,0.657-2.985,1.456-4.319c0.173-0.434,0.346-0.867,0.519-1.3c0.614-1.806,1.15-3.639,1.854-5.415
	c-0.04-1.115,0.365-2.085,0.971-2.99c0.43-0.891,0.425-1.935,0.986-2.778c1.777-4.83,3.533-9.663,5.711-14.343
	c0.729-1.565,1.756-2.934,2.422-4.509c0.381-0.559,0.501-1.257,0.946-1.782c0.626-2.5,2.314-4.469,3.377-6.75
	c0.587-0.484,0.556-1.317,1.045-1.856l-0.023,0.033c0.414-0.619,0.565-1.362,0.943-1.999c0.304-0.522,0.608-1.045,0.913-1.567
	c0.426-0.537,0.461-1.282,0.954-1.783c1.934-4.023,4.335-7.773,6.73-11.527c0.542-0.872,1.402-1.491,1.905-2.394
	c2.245-3.234,4.49-6.467,6.735-9.701c0.482-0.595,1.042-1.131,1.407-1.817c1.931-2.586,3.862-5.173,5.793-7.759
	c0.629-0.803,1.38-1.503,1.976-2.335c0.462-0.513,0.923-1.027,1.385-1.541c0.746-0.969,1.761-1.706,2.396-2.771
	c1.602-1.8,3.203-3.6,4.805-5.4c0.866-0.996,1.768-1.956,2.819-2.762c3.542-3.36,7.082-6.72,10.623-10.081
	c0.86-0.518,1.51-1.282,2.266-1.922c2.126-1.927,4.252-3.854,6.379-5.78c1.083-0.612,1.798-1.655,2.785-2.379
	c0.35-0.318,0.701-0.635,1.051-0.953c0.86-0.533,1.52-1.307,2.307-1.927c4.406-3.126,8.743-6.356,13.236-9.353
	c5.57-3.714,11.541-6.778,17.265-10.238c7.878-4.761,16.284-8.325,24.808-11.672c1.299-0.673,2.542-1.471,3.998-1.799
	c0.588-0.201,1.175-0.403,1.763-0.604c0.978-0.534,1.94-1.103,3.056-1.313c0.963-0.171,1.896-0.418,2.696-1.021
	c0.933-0.5,1.974-0.652,2.979-0.921c0.957-0.283,1.974-0.405,2.791-1.058c1.884-0.79,3.817-1.422,5.832-1.792l-0.046,0.032
	c1.112-0.556,2.335-0.72,3.525-1.002c1.882-0.396,3.817-0.598,5.562-1.502c2.108-0.424,4.18-1.011,6.292-1.414
	c1.249-0.37,2.64-0.174,3.783-0.961c2.867-0.868,5.82-1.335,8.752-1.903c1.653,0.161,3.19-0.26,4.677-0.933
	c1.294-0.723,2.767,0.045,4.084-0.49l0.126,0.082l0.117-0.095c1.066-0.689,2.336,0.089,3.419-0.476l-0.024,0.022
	c1.034-0.733,2.307,0.081,3.362-0.518l-0.001,0.016c3.505-0.804,7.106-0.908,10.647-1.446c0.605-0.028,1.21-0.055,1.816-0.083
	c0.924-0.493,2.002,0.123,2.92-0.407l-0.035,0.019c2.054-0.729,4.229,0.107,6.294-0.482l-0.046,0.03
	c1.676-0.663,3.424-0.142,5.13-0.313c0.854-0.086,1.743,0.21,2.567-0.225l-0.026,0.014c2.469-0.585,4.975-0.113,7.459-0.271
	c0.93-0.059,1.882,0.179,2.79-0.197c2.904,0.432,5.81,0.15,8.715,0.012c2.845,0.406,5.706,0.142,8.559,0.171
	c2.85,0.028,5.652,0.498,8.478,0.748c0.287,0.011,0.574,0.021,0.861,0.033c1.475,0.132,2.978-0.015,4.419,0.447l0.124,0.113
	l0.147-0.081c0.984,0.455,2.093-0.073,3.076,0.388c0.302,0.023,0.604,0.048,0.906,0.071c2.568,0.341,5.203,0.199,7.696,1.077
	l-0.054-0.055c0.79,0.416,1.76-0.186,2.514,0.442l0.122,0.091l0.123-0.09c0.937,0.587,2.219-0.389,3.049,0.675
	c0.89,0.454,1.841,0.29,2.777,0.277c0.959,0.521,2.105-0.175,3.045,0.471l0.126,0.099l0.141-0.077
	c1.363,0.226,2.736,0.407,4.043,0.893l0.129,0.12l0.168-0.056c1.875,0.27,3.705,0.704,5.42,1.539
	c0.656,0.592,1.455,0.361,2.21,0.387c1.212,0.239,2.426,0.469,3.57,0.959l-0.021-0.017c1.084,0.471,2.438,0.138,3.349,1.123
	c1.602,0.418,3.204,0.835,4.807,1.253c1.097,0.442,2.462,0.083,3.358,1.122c0.867,0.429,1.693,0.99,2.736,0.839
	c0.883,0.292,1.866,0.354,2.539,1.12c0.902,0.311,1.713,0.931,2.743,0.802c1.232,0.766,2.785,0.732,3.978,1.597
	c0.357,0.407,0.83,0.351,1.295,0.323c1.129,0.204,2.104,0.763,3.076,1.331c0.686,0.557,1.403,1.04,2.338,1.031
	c1.16,0.446,2.327,0.877,3.382,1.553c4.632,2.321,9.321,4.518,13.887,6.987c6.259,3.386,12.303,7.087,18.262,10.963
	c11.564,7.52,22.114,16.311,32.074,25.787c10.072,9.581,19.214,20.046,27.468,31.237c9.111,12.354,17.169,25.412,24.116,39.082
	c8.404,16.537,15.561,33.62,20.671,51.511c1.537,5.379,2.826,10.831,4.409,16.179c3.061,10.336,2.938,20.842,2.645,31.397
	c-0.178,6.38-0.564,12.754-0.869,19.407c1.428-0.657,2.826-1.144,4.063-1.895c10.394-6.306,20.191-13.373,29.165-21.648
	c8.313-7.666,15.815-16.026,22.613-24.991c6.415-8.459,12.165-17.39,17.242-26.754c4.725-8.715,8.956-17.645,12.809-26.768
	c0.481-1.141,0.661-2.125,0.037-3.379c-5.264-10.581-10.413-21.219-15.669-31.804c-0.64-1.29-0.287-1.756,0.84-2.342
	c1.075-0.56,1.602-0.563,2.182,0.654c3.709,7.78,7.479,15.531,11.27,23.271c1.112,2.272,2.356,4.48,3.744,7.103
	c1.007-2.696,1.991-5.025,2.751-7.427c1.444-4.569,2.812-9.165,4.099-13.781c0.374-1.342,0.833-1.854,2.307-1.486
	c1.554,0.388,1.294,1.193,0.949,2.284c-1.902,6.009-3.264,12.188-5.671,18.042c-0.502,1.221-0.799,2.526-1.259,4.018
	c2.39-0.648,4.015-1.963,5.789-2.987c7.873-4.542,15.791-9.011,23.572-13.705c2.113-1.275,2.374,0.146,3.061,1.335
	c0.397,1.083-0.433,1.435-1.115,1.875c-6.347,3.218-12.366,7.006-18.496,10.603c-1.955,1.146-3.943,2.234-5.916,3.349
	c-0.549,0.514-1.309,0.598-1.937,0.95c-2.195,1.305-4.424,2.56-6.577,3.931c-1.979,1.26-1.925,3.562-2.591,5.487
	c-0.402,0.672-0.425,1.558-1.149,2.049c-0.938,1.669-1.834,3.356-2.173,5.273c-0.884,1.992-1.554,4.097-3.044,5.769
	c-0.652,1.004-1.338,1.995-1.306,3.272c-0.485,0.853-0.706,1.873-1.566,2.49c-1.081,2.037-2.162,4.074-3.244,6.11
	c-0.373,0.91-0.797,1.792-1.425,2.56l0.01-0.014c-0.52,0.548-0.435,1.456-1.129,1.9c-0.271,0.441-0.542,0.882-0.813,1.324
	c-0.472,0.883-0.676,1.939-1.623,2.516c-3.457,5.096-6.914,10.192-10.371,15.288c-0.346,0.816-0.876,1.485-1.604,1.995
	c-0.793,0.368-0.729,1.322-1.272,1.86c-0.453,1.029-1.28,1.739-2.095,2.46c-1.047,0.708-1.445,1.918-2.21,2.845
	c-0.794,1.582-2.42,2.452-3.349,3.917l0.001-0.002c-0.578,0.896-1.286,1.677-2.101,2.362c-1.349,1.144-2.706,2.279-3.678,3.791
	c-0.512,1.104-1.392,1.854-2.396,2.483l0.011-0.011c-0.345,0.651-0.802,1.182-1.52,1.438c-1.522,0.985-2.667,2.352-3.78,3.75
	c-0.766,0.724-1.477,1.513-2.423,2.021c-0.764,0.426-1.416,0.977-1.915,1.701c-0.478,0.766-1.184,1.257-1.976,1.645
	c-0.921,0.815-1.842,1.631-2.762,2.446c-0.947,0.486-1.483,1.533-2.543,1.867c-0.593,0.499-1.186,0.998-1.778,1.497
	c-0.708,0.407-1.238,1.067-1.995,1.406c-0.154,0.102-0.308,0.204-0.462,0.306c-0.354,0.822-1.264,0.745-1.87,1.158
	c-1.299,0.883-2.598,1.766-3.896,2.649c-0.714,1.094-1.86,1.576-2.979,2.097c-1.087,0.589-2.174,1.179-3.262,1.769
	c-0.605,0.901-1.632,1.134-2.52,1.586c-0.26,0.188-0.52,0.376-0.779,0.564c-1.108,0.708-2.324,1.216-3.468,1.859
	c-0.283,0.2-0.565,0.399-0.849,0.599c-0.944,3.747-0.835,7.633-1.51,11.416l0.021-0.014c-0.324,2.408-0.422,4.846-0.96,7.226
	l0.016-0.021c-0.65,1.387,0.272,2.962-0.521,4.332l0.021-0.023c-0.538,2.716-0.536,5.532-1.492,8.173l0.034-0.032
	c-0.479,0.751,0.201,1.736-0.492,2.444l0.03-0.032c-0.503,0.743,0.161,1.718-0.481,2.433l0.017-0.007
	c-0.535,0.728,0.151,1.705-0.494,2.41l0.014-0.013c-0.521,0.743,0.117,1.705-0.46,2.438l-0.107,0.125l0.066,0.15
	c-0.445,0.809,0.13,1.799-0.459,2.582l0.007-0.005c-0.611,3.256-1.361,6.475-2.55,9.577c-0.556,0.543-0.365,1.224-0.342,1.873
	c-0.588,0.712,0.336,1.851-0.688,2.44c-0.364,1.724-1.297,3.307-1.257,5.13c-0.317,1.03-0.152,2.238-1.121,3.028
	c-0.351,0.937-0.966,1.804-0.762,2.886c-0.489,1.085-0.24,2.43-1.184,3.354c-0.396,0.43-0.284,0.946-0.251,1.45
	c-0.417,0.941-0.24,2.115-1.121,2.876c-1.282,2.557-2.227,5.228-2.757,8.041c-0.293,0.861-0.424,1.786-1.009,2.529l0.03-0.041
	c-0.232,0.707-0.311,1.492-1,1.967c-2.052,4.784-4.104,9.567-6.157,14.351c-0.325,0.674-0.312,1.536-1.09,1.958
	c-0.565,0.848-1.22,1.651-1.344,2.719c-0.354,0.693-0.454,1.52-1.067,2.08c-0.385,0.219-0.351,0.583-0.331,0.943
	c-0.356,0.657-0.306,1.555-1.141,1.93c-2.006,2.86-3.388,6.071-5.107,9.093c-0.5,0.58-0.438,1.492-1.146,1.949
	c-2.454,3.696-4.905,7.395-7.361,11.089c-0.839,1.262-1.687,2.517-2.53,3.775c-0.634,1.019-1.021,2.219-2.126,2.892
	c-0.094,0.151-0.187,0.304-0.279,0.455c-0.396,0.756-0.899,1.425-1.58,1.952c-1.399,1.73-2.798,3.462-4.198,5.193
	c-0.3,0.816-0.896,1.412-1.498,2.003l0.025-0.033c-0.341,0.808-0.86,1.468-1.598,1.949c-0.1,0.111-0.2,0.223-0.3,0.334
	c-0.639,0.739-1.332,1.424-2.063,2.071c-0.107,0.138-0.214,0.276-0.32,0.414c-1.008,1.761-2.636,2.955-4.005,4.385
	c-1.85,1.815-3.698,3.631-5.548,5.445c-0.541,0.677-1.146,1.287-1.832,1.819c-0.207,0.267-0.414,0.533-0.622,0.801
	c-0.925,0.885-1.76,1.872-2.878,2.536c-0.693,0.185-1.034,0.77-1.449,1.271c-0.727,0.786-1.451,1.573-2.415,2.083
	c-1.574,1.339-3.148,2.677-4.723,4.016c-0.449,0.49-0.888,0.994-1.521,1.262c-7.446,5.717-14.854,11.488-23.016,16.187
	c-0.938,0.956-2.136,1.5-3.307,2.087c-3.041,1.759-6.082,3.518-9.122,5.277c-0.875,0.67-1.914,1.009-2.911,1.432
	c-0.17,0.085-0.34,0.171-0.51,0.256c-0.853,0.814-2.027,1.032-3.007,1.612c-0.418,0.185-0.836,0.368-1.254,0.552
	c-0.624,0.496-1.359,0.724-2.123,0.886c-0.889,0.485-1.778,0.971-2.667,1.456c-0.687,0.35-1.4,0.637-2.103,0.949
	c-2.66,1.128-5.32,2.256-7.98,3.384c-0.787,0.453-1.68,0.627-2.514,0.956c-1.564,0.649-3.129,1.3-4.693,1.949
	c-0.688,0.721-1.672,0.637-2.518,0.929c-2.357,0.793-4.714,1.586-7.07,2.379c-1.512,0.405-2.889,1.218-4.453,1.46
	c-1.175,0.035-2.187,0.595-3.243,1.013c-1.474,0.597-2.967,1.126-4.547,1.37c-1.205,0.351-2.411,0.701-3.617,1.051
	c-0.748,0.501-1.693-0.105-2.435,0.436c-1.27,0.344-2.54,0.688-3.81,1.03c-2.597,0.603-5.15,1.386-7.784,1.825
	c-1.573,0.298-3.241,0.163-4.693,1.021c-1.467,0.291-2.919,0.659-4.404,0.862l0.055-0.043c-1.044,0.841-2.364-0.042-3.447,0.553
	c-0.282,0.025-0.563,0.051-0.845,0.076c-0.772,0.472-1.696-0.04-2.477,0.378l0.046-0.039c-2.055,0.692-4.223,0.685-6.334,1.026
	c-1.397,0.177-2.794,0.353-4.191,0.529c-1.069,0.6-2.314-0.133-3.386,0.448l0.007-0.008c-1.026,0.692-2.281-0.128-3.316,0.499
	l-0.036,0.056c-0.429,0.748-0.226,1.566-0.226,2.351c-0.013,23.192-0.011,46.385-0.01,69.576c0,2.686,0.003,2.688,2.722,2.688
	c5.438,0.002,10.877,0.037,16.314-0.024c1.433-0.016,2.161,0.189,2.148,1.915c-0.013,1.653-0.593,1.982-2.102,1.967
	c-6.717-0.071-13.437-0.117-20.151,0.021c-2.032,0.042-2.313-0.722-2.311-2.476c0.048-24.232,0.032-48.464,0.032-72.695
	c0-0.64,0.008-1.279-0.006-1.92c-0.013-0.607-0.094-1.143-0.936-0.933c-2.193,0.55-4.463-0.139-6.658,0.404
	c-0.913,0.034-1.825,0.068-2.738,0.103c-1.287,0.48-2.679-0.137-3.962,0.376c-1.401,0.039-2.802,0.078-4.203,0.116
	c-2.283,0.472-4.621-0.154-6.902,0.354c-4.525,0.001-9.05,0.003-13.575,0.005c-1.497-0.289-2.993-0.353-4.485,0.038l-0.001,0.002
	c-0.417,0.751-0.221,1.568-0.222,2.353c-0.012,22.627,0.015,45.253-0.052,67.878c-0.005,1.937,0.417,2.618,2.47,2.565
	c5.513-0.143,11.032-0.026,16.549-0.064c1.343-0.01,2.211,0.039,2.214,1.854c0.004,1.851-0.789,2.029-2.299,2.016
	c-6.635-0.063-13.273-0.104-19.906,0.021c-1.931,0.036-2.376-0.544-2.372-2.408c0.062-23.984,0.044-47.97,0.029-71.955
	c-0.001-0.859,0.246-1.76-0.241-2.581c-2.343-0.471-4.708-0.148-7.062-0.192c-4.317-0.361-8.607-1.03-12.944-1.158
	c-0.392-0.012-0.801,0.049-1.076-0.334l0.032,0.037c-1.248-0.54-2.659,0.247-3.885-0.479l0.021,0.026
	c-1.081-0.559-2.323,0.146-3.401-0.434c-1.364-0.472-2.887,0.31-4.205-0.533c-3.103-0.287-6.169-0.815-9.232-1.369
	c-0.277-0.026-0.554-0.053-0.831-0.079c-2.799-0.23-5.563-0.671-8.273-1.426v0.008c-0.736-0.534-1.701,0.118-2.428-0.469
	c-0.787-0.37-1.775,0.352-2.48-0.46c-2.731-0.494-5.428-1.128-8.081-1.942c-0.71-0.375-1.648,0.266-2.268-0.509
	c-1.309-0.375-2.658-0.58-3.971-0.933c-1.475-0.122-2.912-0.411-4.297-0.937c-1.593-0.518-3.227-0.903-4.791-1.514l0.026,0.021
	c-1.629-0.418-3.261-0.823-4.806-1.507l0.036,0.032c-1.022-0.223-2.08-0.335-2.98-0.942c-1.624-0.456-3.249-0.913-4.873-1.369
	c-0.868-0.476-1.979-0.333-2.74-1.08l0.034,0.03c-2.166-0.643-4.246-1.516-6.337-2.357c-0.347-0.145-0.694-0.289-1.041-0.433
	c-1.168-0.71-2.578-0.807-3.759-1.483c-0.365-0.146-0.729-0.29-1.094-0.436c-0.877-0.41-1.87-0.484-2.732-0.936
	c-0.328-0.169-0.656-0.339-0.984-0.507c-2.596-1.222-5.232-2.364-7.671-3.896c-0.348-0.142-0.697-0.283-1.045-0.425
	c-0.913-0.525-1.979-0.762-2.791-1.477c-0.175-0.149-0.35-0.297-0.524-0.445c-1.2-0.901-2.669-1.377-3.792-2.402
	c-0.791-0.479-1.581-0.958-2.372-1.438c-0.672-0.461-1.326-0.944-1.894-1.535l0.024,0.019c-0.795-0.251-1.264-0.989-1.996-1.336
	c-0.198-0.169-0.396-0.338-0.594-0.508c-0.578-0.519-1.174-1.017-1.813-1.46c-0.822-0.634-1.645-1.267-2.467-1.9
	c-0.812-0.59-1.443-1.402-2.328-1.903c-0.348-0.326-0.696-0.651-1.045-0.977c-0.991-0.737-1.742-1.754-2.799-2.415
	c-0.961-0.955-1.923-1.911-2.885-2.867c-1.111-0.775-2.02-1.759-2.874-2.798c-0.196-0.187-0.393-0.373-0.589-0.561
	c-1.004-0.848-1.937-1.768-2.772-2.784c-0.294-0.349-0.589-0.697-0.884-1.047c-0.569-0.752-1.19-1.452-2-1.96
	c-0.646-0.791-1.293-1.583-1.94-2.375c-1.344-1.7-3.485-0.955-5.157-1.665c-0.329-0.14-0.778,0.036-1.072-0.307
	c-3.866-0.807-7.753-1.521-11.497-2.823c-0.758-0.439-1.647-0.553-2.414-0.97c-3.8-1.375-7.539-2.89-11.111-4.792
	c-0.67-0.629-1.551-0.901-2.319-1.365c-1.489-0.984-2.979-1.968-4.468-2.952c-1.345-0.438-2.05-1.733-3.223-2.403
	c-0.171-0.159-0.343-0.32-0.514-0.48c-0.549-0.379-1.017-0.841-1.407-1.383c-0.177-0.179-0.354-0.357-0.53-0.537
	c-1.066-0.809-1.99-1.763-2.831-2.799c-0.164-0.188-0.328-0.375-0.491-0.563c-0.41-0.691-0.992-1.254-1.429-1.925
	c-0.836-1.519-2.411-2.546-2.874-4.313c-0.518-0.501-0.551-1.261-0.968-1.815c-0.478-0.835-0.956-1.67-1.434-2.506
	c-0.527-0.899-0.608-1.942-0.937-2.906l0.004,0.008c-0.499-1.612-1.039-3.212-1.445-4.852c-0.317-1.414-0.633-2.828-0.95-4.243
	c-0.882-4.451-1.09-8.924-0.436-13.425l-0.028,0.032c0.244-4.761,1.185-9.402,2.41-13.994c-0.008-0.637,0.03-1.261,0.465-1.78
	c0.277-1.172,0.544-2.346,0.928-3.488c0.954-2.284,1.907-4.567,2.861-6.851c0.427-0.537,0.46-1.286,0.957-1.786
	c-0.472-1.919-0.944-3.837-1.417-5.757c-0.546-0.846-0.551-1.882-0.98-2.769c-0.554-0.398-0.292-1.035-0.451-1.549
	c-0.564-0.842-0.555-1.887-0.989-2.774c-0.495-1.108-0.972-2.222-0.949-3.471c-0.554-1.7-0.917-3.452-1.452-5.158
	c-0.54-0.926-0.797-1.939-0.915-2.995c-0.647-1.734-0.892-3.578-1.446-5.337l0.017,0.032c-0.656-0.699,0.052-1.687-0.509-2.405
	l0.003,0.003c-0.468-1.318-0.629-2.707-0.924-4.065c-0.169-0.717-0.338-1.434-0.508-2.15c-0.638-1.907-1.17-3.841-1.406-5.845
	l0.035,0.043c-0.761-0.66,0.024-1.683-0.559-2.385l0.002,0c-0.632-0.908,0.079-2.03-0.468-2.952
	c0.091-0.144,0.075-0.274-0.047-0.392c-0.347-1.483-0.654-2.974-0.897-4.477c-0.532-0.663-0.442-1.456-0.464-2.225
	c-0.726-0.9,0.059-2.059-0.513-2.986c0.092-0.141,0.08-0.271-0.038-0.391c-0.581-1.901-0.681-3.877-0.899-5.834l0.037,0.046
	c-0.726-3.197-0.691-6.473-1.011-9.711c0.113-0.117,0.108-0.228-0.015-0.334c-0.248-3.145-0.734-6.271-0.743-9.433
	c-0.004-1.506,0.026-3.012-0.189-4.509c-0.025-0.637-0.049-1.273-0.074-1.91C216.938,426.719,217.005,421.441,217.29,416.164z"/>
<path fill-rule="evenodd" clip-rule="evenodd" fill="#FBFBFB" d="M482.169,670.051c2.212-0.244,4.428-0.458,6.634-0.748
	c0.749-0.099,1.046,0.156,1.057,0.856c0.011,0.64,0.009,1.279,0.009,1.919c-0.013,24.238,0.003,48.476-0.092,72.714
	c-0.008,2.122,0.526,2.686,2.644,2.638c6.556-0.146,13.117-0.076,19.677-0.033c1.282,0.008,2.019-0.069,2.044-1.733
	c0.026-1.761-0.875-1.671-2.067-1.668c-5.679,0.017-11.359-0.056-17.037,0.015c-1.51,0.019-2.082-0.313-2.076-1.962
	c0.075-23.838,0.084-47.675,0.114-71.513c0-0.466-0.111-0.968,0.276-1.359c0.005,23.822,0.042,47.646-0.034,71.469
	c-0.008,2.272,0.541,3.03,2.895,2.952c5.27-0.174,10.551-0.017,15.826-0.075c1.553-0.017,2.491,0.089,2.525,2.112
	c0.036,2.151-0.98,2.269-2.627,2.255c-6.635-0.054-13.271-0.094-19.905,0.021c-1.996,0.034-2.561-0.563-2.556-2.557
	c0.063-24.303,0.02-48.604,0.086-72.907c0.005-1.873-0.222-2.724-2.364-2.4C485.558,670.293,483.848,670.066,482.169,670.051z"/>
<path fill-rule="evenodd" clip-rule="evenodd" fill="#FBFBFB" d="M442.472,670.721c0.637,0.777,0.3,1.691,0.3,2.531
	c0.008,23.837,0.019,47.674-0.068,71.51c-0.007,2.059,0.416,2.728,2.603,2.674c6.555-0.162,13.117-0.082,19.676-0.039
	c1.295,0.009,2.021-0.103,2.044-1.752c0.025-1.752-0.875-1.684-2.079-1.679c-5.679,0.027-11.358-0.018-17.037,0.034
	c-1.325,0.012-2.01-0.166-2.006-1.781c0.065-23.356,0.066-46.713,0.097-70.07c0.001-0.368,0.196-0.736,0.3-1.104
	c0.007,23.194,0.045,46.39-0.029,69.584c-0.007,2.255,0.505,3.048,2.879,2.97c5.353-0.177,10.716-0.01,16.074-0.084
	c1.592-0.022,2.257,0.359,2.275,2.117c0.019,1.844-0.625,2.294-2.37,2.271c-6.717-0.087-13.438-0.107-20.154,0.009
	c-2.009,0.035-2.553-0.583-2.547-2.566C442.493,720.47,442.472,695.596,442.472,670.721z"/>
<path fill-rule="evenodd" clip-rule="evenodd" fill="#FBFBFB" d="M497.208,179.034c-5.679-0.306-11.356-0.612-17.035-0.918
	c5.339-0.111,10.68-0.246,15.996,0.441C496.53,178.604,496.862,178.87,497.208,179.034z"/>
<path fill-rule="evenodd" clip-rule="evenodd" fill="#FBFBFB" d="M217.29,416.164c0.011,5.277,0.023,10.554,0.035,15.831
	c-0.713-0.624-0.454-1.465-0.458-2.224c-0.023-3.788-0.023-7.577-0.001-11.365C216.87,417.645,216.621,416.81,217.29,416.164z"/>
<path fill-rule="evenodd" clip-rule="evenodd" fill="#FBFBFB" d="M229.881,537.591c-0.803,4.664-1.607,9.33-2.411,13.994
	C227.308,546.754,228.124,542.091,229.881,537.591z"/>
<path fill-rule="evenodd" clip-rule="evenodd" fill="#FBFBFB" d="M227.499,551.553c-0.131,4.483,0.074,8.957,0.436,13.425
	C226.432,560.547,226.568,556.063,227.499,551.553z"/>
<path fill-rule="evenodd" clip-rule="evenodd" fill="#FBFBFB" d="M217.399,433.905c0.498,4.635,0.938,9.273,0.932,13.942
	c-1.172-1.947-0.447-4.173-0.856-6.262C216.99,439.115,217.385,436.473,217.399,433.905z"/>
<path fill-rule="evenodd" clip-rule="evenodd" fill="#FBFBFB" d="M421.39,669.036c4.708,0.168,9.379,0.693,14.02,1.492
	c-4.542,0.159-8.999-0.821-13.514-1.027C421.72,669.493,421.558,669.198,421.39,669.036z"/>
<path fill-rule="evenodd" clip-rule="evenodd" fill="#FBFBFB" d="M716.514,447.331c0.253-3.838,0.149-7.724,1.51-11.416
	C717.569,439.728,717.687,443.614,716.514,447.331z"/>
<path fill-rule="evenodd" clip-rule="evenodd" fill="#FBFBFB" d="M442.588,180.017c-3.497,0.863-7.061,1.234-10.647,1.446
	C435.352,179.965,439.002,180.222,442.588,180.017z"/>
<path fill-rule="evenodd" clip-rule="evenodd" fill="#FBFBFB" d="M708.723,489.074c0.85-3.192,1.7-6.385,2.55-9.577
	C711.098,482.869,710.408,486.104,708.723,489.074z"/>
<path fill-rule="evenodd" clip-rule="evenodd" fill="#FBFBFB" d="M324.377,643.163c2.68,1.058,5.256,2.316,7.671,3.896
	C329.189,646.355,326.591,645.138,324.377,643.163z"/>
<path fill-rule="evenodd" clip-rule="evenodd" fill="#FBFBFB" d="M416.181,183.855c-2.832,1.031-5.779,1.527-8.752,1.903
	C410.207,184.482,413.126,183.859,416.181,183.855z"/>
<path fill-rule="evenodd" clip-rule="evenodd" fill="#FBFBFB" d="M471.457,178.104c-3.386,0.834-6.838,0.201-10.249,0.468
	c2.161-1.097,4.467-0.306,6.698-0.497C469.081,177.975,470.273,178.087,471.457,178.104z"/>
<path fill-rule="evenodd" clip-rule="evenodd" fill="#FBFBFB" d="M218.346,448.181c0.56,3.213,0.849,6.456,1.011,9.711
	C218.151,454.746,218.249,451.463,218.346,448.181z"/>
<path fill-rule="evenodd" clip-rule="evenodd" fill="#FBFBFB" d="M400.719,666.285c3.13,0.1,6.186,0.707,9.232,1.369
	C406.785,667.803,403.715,667.293,400.719,666.285z"/>
<path fill-rule="evenodd" clip-rule="evenodd" fill="#FBFBFB" d="M713.599,467.003c0.376-2.747,0.628-5.516,1.492-8.173
	C715.137,461.654,714.987,464.442,713.599,467.003z"/>
<path fill-rule="evenodd" clip-rule="evenodd" fill="#FBFBFB" d="M378.626,661.917c2.738,0.464,5.482,0.9,8.081,1.942
	C383.87,663.809,381.167,663.198,378.626,661.917z"/>
<path fill-rule="evenodd" clip-rule="evenodd" fill="#FBFBFB" d="M220.188,382.558c-0.444,2.588-0.408,5.259-1.335,7.764
	C218.764,387.643,218.841,384.992,220.188,382.558z"/>
<path fill-rule="evenodd" clip-rule="evenodd" fill="#FBFBFB" d="M526.373,663.816c2.547-0.812,5.103-1.585,7.784-1.825
	C531.672,663.067,529.107,663.803,526.373,663.816z"/>
<path fill-rule="evenodd" clip-rule="evenodd" fill="#FBFBFB" d="M391.615,664.78c2.758,0.476,5.515,0.951,8.273,1.426
	C397.013,666.416,394.238,666.036,391.615,664.78z"/>
<path fill-rule="evenodd" clip-rule="evenodd" fill="#FBFBFB" d="M514.438,181.083c-2.584-0.229-5.172-0.428-7.696-1.077
	C509.383,179.823,511.997,179.841,514.438,181.083z"/>
<path fill-rule="evenodd" clip-rule="evenodd" fill="#FBFBFB" d="M715.575,454.543c0.006-2.451,0.22-4.874,0.96-7.226
	C716.654,449.784,716.628,452.232,715.575,454.543z"/>
<path fill-rule="evenodd" clip-rule="evenodd" fill="#FBFBFB" d="M798.959,348.411c1.015-1.922,2.029-3.846,3.044-5.768
	C801.633,344.905,800.897,346.976,798.959,348.411z"/>
<path fill-rule="evenodd" clip-rule="evenodd" fill="#FBFBFB" d="M217.968,401.802c-0.019,2.784-0.022,5.569-0.576,8.316
	c-0.018-2.144-0.053-4.289-0.043-6.434C217.351,403.009,217.108,402.212,217.968,401.802z"/>
<path fill-rule="evenodd" clip-rule="evenodd" fill="#FBFBFB" d="M278.77,608.598c1.68,0.256,3.367,0.48,5.038,0.783
	c0.607,0.11,1.223,0.365,1.191,1.188C283.089,609.388,280.644,609.895,278.77,608.598z"/>
<path fill-rule="evenodd" clip-rule="evenodd" fill="#FBFBFB" d="M341.659,650.853c2.245,0.429,4.332,1.284,6.336,2.357
	C345.642,653.072,343.579,652.155,341.659,650.853z"/>
<path fill-rule="evenodd" clip-rule="evenodd" fill="#FBFBFB" d="M652.044,596.109c1.335-1.461,2.67-2.923,4.005-4.385
	C655.467,593.875,653.792,595.025,652.044,596.109z"/>
<path fill-rule="evenodd" clip-rule="evenodd" fill="#FBFBFB" d="M223.641,364.333c-0.486,2.279-0.972,4.558-1.457,6.837
	C222.05,368.759,222.111,366.39,223.641,364.333z"/>
<path fill-rule="evenodd" clip-rule="evenodd" fill="#FBFBFB" d="M461.234,178.558c-2.522,0.81-5.148,0.11-7.697,0.537
	C456.032,177.894,458.674,178.813,461.234,178.558z"/>
<path fill-rule="evenodd" clip-rule="evenodd" fill="#FBFBFB" d="M504.273,667.651c2.063-0.638,4.187-0.906,6.334-1.025
	C508.644,667.875,506.453,667.732,504.273,667.651z"/>
<path fill-rule="evenodd" clip-rule="evenodd" fill="#FBFBFB" d="M388.313,190.605c-1.861,0.868-3.813,1.438-5.832,1.792
	C384.195,191.052,386.174,190.569,388.313,190.605z"/>
<path fill-rule="evenodd" clip-rule="evenodd" fill="#FBFBFB" d="M403.646,186.72c-2.04,0.727-4.081,1.45-6.292,1.414
	C399.355,187.233,401.432,186.669,403.646,186.72z"/>
<path fill-rule="evenodd" clip-rule="evenodd" fill="#FBFBFB" d="M218.896,390.266c-0.195,2.397-0.39,4.794-0.584,7.191
	C218.625,395.069,217.572,392.571,218.896,390.266z"/>
<path fill-rule="evenodd" clip-rule="evenodd" fill="#FBFBFB" d="M223.167,479.445c0.807,1.867,1.131,3.85,1.406,5.845
	C223.433,483.503,222.903,481.569,223.167,479.445z"/>
<path fill-rule="evenodd" clip-rule="evenodd" fill="#FBFBFB" d="M230.286,341.751c-0.324,1.905-0.903,3.724-1.854,5.415
	C228.575,345.198,229.104,343.363,230.286,341.751z"/>
<path fill-rule="evenodd" clip-rule="evenodd" fill="#FBFBFB" d="M464.363,670.999c2.266-0.796,4.602-0.215,6.902-0.354
	C469.003,671.513,466.665,670.902,464.363,670.999z"/>
<path fill-rule="evenodd" clip-rule="evenodd" fill="#FBFBFB" d="M766.961,396.935c0.58-1.764,2.35-2.511,3.349-3.917
	C769.937,394.959,768.308,395.827,766.961,396.935z"/>
<path fill-rule="evenodd" clip-rule="evenodd" fill="#FBFBFB" d="M228.855,502.208c0.937,1.592,1.325,3.339,1.452,5.158
	C229.324,505.787,228.791,504.082,228.855,502.208z"/>
<path fill-rule="evenodd" clip-rule="evenodd" fill="#FBFBFB" d="M219.319,457.847c0.643,1.892,0.775,3.863,0.899,5.834
	C219.114,461.86,219.188,459.858,219.319,457.847z"/>
<path fill-rule="evenodd" clip-rule="evenodd" fill="#FBFBFB" d="M453.583,179.064c-2.055,0.723-4.19,0.391-6.294,0.482
	C449.316,178.452,451.486,179.236,453.583,179.064z"/>
<path fill-rule="evenodd" clip-rule="evenodd" fill="#FBFBFB" d="M536.041,185.412c-1.807-0.513-3.612-1.025-5.419-1.539
	C532.625,183.689,534.457,184.114,536.041,185.412z"/>
<path fill-rule="evenodd" clip-rule="evenodd" fill="#FBFBFB" d="M226.494,493.876c0.819,1.688,1.312,3.464,1.446,5.337
	C226.848,497.6,226.561,495.768,226.494,493.876z"/>
<path fill-rule="evenodd" clip-rule="evenodd" fill="#FBFBFB" d="M228.885,569.221c0.61,1.578,1.386,3.108,1.445,4.852
	C229.383,572.594,228.825,570.999,228.885,569.221z"/>
<path fill-rule="evenodd" clip-rule="evenodd" fill="#FBFBFB" d="M316.226,638.414c1.436,0.529,2.749,1.253,3.792,2.402
	C318.521,640.381,317.066,639.882,316.226,638.414z"/>
<path fill-rule="evenodd" clip-rule="evenodd" fill="#FBFBFB" d="M222.135,371.512c-0.021,1.667-0.31,3.282-0.921,4.836
	C221.163,374.668,220.959,372.959,222.135,371.512z"/>
<path fill-rule="evenodd" clip-rule="evenodd" fill="#FBFBFB" d="M221.226,376.331c-0.065,1.846-0.507,3.625-0.961,5.401
	C220.109,379.847,220.308,378.025,221.226,376.331z"/>
<path fill-rule="evenodd" clip-rule="evenodd" fill="#FBFBFB" d="M363.298,658.025c1.674,0.262,3.359,0.487,4.791,1.514
	C366.334,659.535,364.745,659.007,363.298,658.025z"/>
<path fill-rule="evenodd" clip-rule="evenodd" fill="#FBFBFB" d="M358.519,656.539c1.698,0.193,3.265,0.812,4.806,1.507
	C361.543,658.113,359.937,657.628,358.519,656.539z"/>
<path fill-rule="evenodd" clip-rule="evenodd" fill="#FBFBFB" d="M502.488,179.514c-1.485-0.025-2.987,0.112-4.419-0.447
	C499.645,178.206,501.059,178.936,502.488,179.514z"/>
<path fill-rule="evenodd" clip-rule="evenodd" fill="#FBFBFB" d="M243.74,593.292c1.395,0.371,2.18,1.56,3.223,2.403
	C245.284,595.705,244.6,594.381,243.74,593.292z"/>
<path fill-rule="evenodd" clip-rule="evenodd" fill="#FBFBFB" d="M238.458,588.093c1.013,0.862,2.125,1.626,2.831,2.799
	C239.844,590.465,238.916,589.517,238.458,588.093z"/>
<path fill-rule="evenodd" clip-rule="evenodd" fill="#FBFBFB" d="M551.809,657.092c1.431-0.649,2.826-1.408,4.453-1.46
	C554.916,656.542,553.516,657.284,551.809,657.092z"/>
<path fill-rule="evenodd" clip-rule="evenodd" fill="#FBFBFB" d="M289.822,615.951c1.146,0.708,2.088,1.617,2.772,2.784
	C291.206,618.271,290.275,617.349,289.822,615.951z"/>
<path fill-rule="evenodd" clip-rule="evenodd" fill="#FBFBFB" d="M293.183,619.296c1.161,0.725,2.08,1.697,2.874,2.798
	C294.574,621.7,293.657,620.726,293.183,619.296z"/>
<path fill-rule="evenodd" clip-rule="evenodd" fill="#FBFBFB" d="M544.019,659.475c1.456-0.656,2.952-1.177,4.547-1.37
	C547.247,659.216,545.721,659.636,544.019,659.475z"/>
<path fill-rule="evenodd" clip-rule="evenodd" fill="#FBFBFB" d="M227.913,348.466c-0.252,1.519-0.358,3.086-1.456,4.319
	C226.76,351.284,226.712,349.665,227.913,348.466z"/>
<path fill-rule="evenodd" clip-rule="evenodd" fill="#FBFBFB" d="M369.197,197.315c-1.207,0.879-2.55,1.455-3.998,1.799
	C366.25,197.889,367.568,197.256,369.197,197.315z"/>
<path fill-rule="evenodd" clip-rule="evenodd" fill="#FBFBFB" d="M284.48,253.42c-0.696,1.169-1.71,2.014-2.819,2.762
	C282.145,254.796,283.054,253.844,284.48,253.42z"/>
<path fill-rule="evenodd" clip-rule="evenodd" fill="#FBFBFB" d="M641.164,606.711c0.86-0.957,1.672-1.971,2.878-2.536
	C643.442,605.429,642.654,606.469,641.164,606.711z"/>
<path fill-rule="evenodd" clip-rule="evenodd" fill="#FBFBFB" d="M565.311,194.598c-1.376-0.407-2.844-0.586-3.978-1.597
	C562.736,193.339,564.287,193.313,565.311,194.598z"/>
<path fill-rule="evenodd" clip-rule="evenodd" fill="#FBFBFB" d="M276.856,261.583c-0.332,1.328-1.374,2.042-2.396,2.771
	C274.766,263.004,275.856,262.332,276.856,261.583z"/>
<path fill-rule="evenodd" clip-rule="evenodd" fill="#FBFBFB" d="M604.733,633.615c1.103-0.695,2.204-1.392,3.307-2.087
	C607.33,632.846,606.236,633.556,604.733,633.615z"/>
<path fill-rule="evenodd" clip-rule="evenodd" fill="#FBFBFB" d="M517.275,665.7c1.409-0.588,2.866-0.935,4.404-0.862
	C520.306,665.603,518.845,665.927,517.275,665.7z"/>
<path fill-rule="evenodd" clip-rule="evenodd" fill="#FBFBFB" d="M336.859,648.937c1.368,0.203,2.704,0.488,3.759,1.483
	C339.245,650.229,337.882,650.014,336.859,648.937z"/>
<path fill-rule="evenodd" clip-rule="evenodd" fill="#FBFBFB" d="M306.533,233.258c-0.787,0.958-1.359,2.168-2.785,2.379
	C304.512,234.652,305.172,233.545,306.533,233.258z"/>
<path fill-rule="evenodd" clip-rule="evenodd" fill="#FBFBFB" d="M221.233,469.283c0.557,1.44,1.014,2.901,0.897,4.477
	C221.321,472.37,221.083,470.865,221.233,469.283z"/>
<path fill-rule="evenodd" clip-rule="evenodd" fill="#FBFBFB" d="M718.872,435.316c0.955-0.994,2.171-1.502,3.468-1.859
	C721.483,434.636,720.244,435.099,718.872,435.316z"/>
<path fill-rule="evenodd" clip-rule="evenodd" fill="#FBFBFB" d="M298.942,624.961c1.368,0.301,2.123,1.313,2.799,2.415
	C300.367,627.083,299.688,625.983,298.942,624.961z"/>
<path fill-rule="evenodd" clip-rule="evenodd" fill="#FBFBFB" d="M225.081,487.44c0.571,1.296,1.024,2.618,0.924,4.066
	C224.963,490.317,224.955,488.895,225.081,487.44z"/>
<path fill-rule="evenodd" clip-rule="evenodd" fill="#FBFBFB" d="M575.401,198.836c-1.277-0.19-2.31-0.917-3.382-1.553
	C573.399,197.251,574.544,197.729,575.401,198.836z"/>
<path fill-rule="evenodd" clip-rule="evenodd" fill="#FBFBFB" d="M372.387,660.476c1.416-0.083,2.735,0.248,3.971,0.933
	C374.934,661.523,373.603,661.242,372.387,660.476z"/>
<path fill-rule="evenodd" clip-rule="evenodd" fill="#FBFBFB" d="M226.021,354.7c0.035,1.359-0.177,2.652-1.006,3.782
	C225.05,357.142,225.25,355.845,226.021,354.7z"/>
<path fill-rule="evenodd" clip-rule="evenodd" fill="#FBFBFB" d="M224.505,360.477c-0.055,1.351-0.372,2.641-0.887,3.886
	C223.588,362.992,223.3,361.564,224.505,360.477z"/>
<path fill-rule="evenodd" clip-rule="evenodd" fill="#FBFBFB" d="M218.317,397.44c-0.179,1.468,0.324,3-0.405,4.417
	C217.961,400.377,217.344,398.836,218.317,397.44z"/>
<path fill-rule="evenodd" clip-rule="evenodd" fill="#FBFBFB" d="M758.788,405.569c0.799-0.828,1.597-1.656,2.396-2.483
	C761.036,404.541,760.199,405.333,758.788,405.569z"/>
<path fill-rule="evenodd" clip-rule="evenodd" fill="#FBFBFB" d="M728.9,429.537c0.993-0.698,1.986-1.397,2.979-2.096
	C731.45,428.94,730.311,429.431,728.9,429.537z"/>
<path fill-rule="evenodd" clip-rule="evenodd" fill="#FBFBFB" d="M715.07,458.854c0.038-1.46-0.075-2.939,0.521-4.332
	C715.417,455.966,716.159,457.52,715.07,458.854z"/>
<path fill-rule="evenodd" clip-rule="evenodd" fill="#FBFBFB" d="M667.86,577.386c0.709-0.964,1.417-1.928,2.126-2.892
	C669.799,575.841,669.338,576.987,667.86,577.386z"/>
<path fill-rule="evenodd" clip-rule="evenodd" fill="#FBFBFB" d="M530.324,183.809c-1.399-0.061-2.768-0.263-4.043-0.893
	C527.727,182.771,529.123,182.85,530.324,183.809z"/>
<path fill-rule="evenodd" clip-rule="evenodd" fill="#FBFBFB" d="M446.303,671.042c1.489-0.729,2.985-0.596,4.485-0.038
	C449.293,671.017,447.798,671.029,446.303,671.042z"/>
<path fill-rule="evenodd" clip-rule="evenodd" fill="#FBFBFB" d="M545.149,187.864c-1.12-0.363-2.363-0.36-3.349-1.124
	C543.042,186.741,544.407,186.374,545.149,187.864z"/>
<path fill-rule="evenodd" clip-rule="evenodd" fill="#FBFBFB" d="M309.891,230.378c-0.561,0.892-1.122,1.783-2.307,1.927
	C308.159,231.43,308.734,230.556,309.891,230.378z"/>
<path fill-rule="evenodd" clip-rule="evenodd" fill="#FBFBFB" d="M592.7,640.324c0.865-0.69,1.757-1.328,2.911-1.432
	C594.959,640.016,593.911,640.335,592.7,640.324z"/>
<path fill-rule="evenodd" clip-rule="evenodd" fill="#FBFBFB" d="M703.369,507.785c0.323-1.143,0.521-2.33,1.184-3.354
	C704.594,505.703,704.573,506.953,703.369,507.785z"/>
<path fill-rule="evenodd" clip-rule="evenodd" fill="#FBFBFB" d="M320.541,641.262c1.097,0.176,2.009,0.702,2.791,1.477
	C322.162,642.697,321.141,642.377,320.541,641.262z"/>
<path fill-rule="evenodd" clip-rule="evenodd" fill="#FBFBFB" d="M589.184,642.192c0.846-0.83,1.944-1.188,3.007-1.612
	C591.527,641.749,590.428,642.104,589.184,642.192z"/>
<path fill-rule="evenodd" clip-rule="evenodd" fill="#FBFBFB" d="M741.881,420.424c0.806-0.68,1.263-1.834,2.543-1.867
	C743.787,419.467,743.219,420.468,741.881,420.424z"/>
<path fill-rule="evenodd" clip-rule="evenodd" fill="#FBFBFB" d="M424.943,182.433c-1.312,0.578-2.694,0.568-4.084,0.49
	C422.11,181.847,423.577,182.565,424.943,182.433z"/>
<path fill-rule="evenodd" clip-rule="evenodd" fill="#FBFBFB" d="M374.016,195.397c-1.018,0.438-2.037,0.875-3.056,1.313
	C371.701,195.627,372.753,195.267,374.016,195.397z"/>
<path fill-rule="evenodd" clip-rule="evenodd" fill="#FBFBFB" d="M751.076,412.766c0.754-0.737,1.419-1.582,2.423-2.021
	C753.024,411.818,752.375,412.682,751.076,412.766z"/>
<path fill-rule="evenodd" clip-rule="evenodd" fill="#FBFBFB" d="M302.787,628.353c1.083,0.259,1.783,0.986,2.328,1.903
	C303.947,630.101,303.379,629.213,302.787,628.353z"/>
<path fill-rule="evenodd" clip-rule="evenodd" fill="#FBFBFB" d="M257.165,287.507c-0.208,1.138-0.983,1.824-1.905,2.394
	C255.376,288.69,256.288,288.111,257.165,287.507z"/>
<path fill-rule="evenodd" clip-rule="evenodd" fill="#FBFBFB" d="M231.274,532.322c-0.006,1.243-0.429,2.375-0.928,3.488
	C230.229,534.534,230.414,533.338,231.274,532.322z"/>
<path fill-rule="evenodd" clip-rule="evenodd" fill="#FBFBFB" d="M637.3,610.064c0.718-0.796,1.446-1.579,2.415-2.083
	C639.296,609.123,638.614,609.96,637.3,610.064z"/>
<path fill-rule="evenodd" clip-rule="evenodd" fill="#FBFBFB" d="M541.821,186.758c-1.259-0.063-2.462-0.33-3.569-0.959
	C539.56,185.68,540.807,185.788,541.821,186.758z"/>
<path fill-rule="evenodd" clip-rule="evenodd" fill="#FBFBFB" d="M273.076,265.895c-0.279,1.1-1.074,1.762-1.976,2.335
	C271.28,267.046,272.154,266.45,273.076,265.895z"/>
<path fill-rule="evenodd" clip-rule="evenodd" fill="#FBFBFB" d="M553.314,190.24c-1.119-0.374-2.239-0.748-3.358-1.122
	C551.189,189.151,552.557,188.783,553.314,190.24z"/>
<path fill-rule="evenodd" clip-rule="evenodd" fill="#FBFBFB" d="M297.369,241.418c-0.588,0.837-1.122,1.739-2.266,1.922
	C295.672,242.479,296.243,241.621,297.369,241.418z"/>
<path fill-rule="evenodd" clip-rule="evenodd" fill="#FBFBFB" d="M569.682,196.251c-1.025-0.443-2.051-0.887-3.075-1.331
	C567.88,194.789,568.947,195.135,569.682,196.251z"/>
<path fill-rule="evenodd" clip-rule="evenodd" fill="#FBFBFB" d="M391.792,189.636c-1.096,0.611-2.289,0.882-3.525,1.001
	C389.251,189.636,390.483,189.502,391.792,189.636z"/>
<path fill-rule="evenodd" clip-rule="evenodd" fill="#FBFBFB" d="M417.537,668.595c1.315,0,2.638-0.068,3.885,0.479
	C420.121,668.961,418.72,669.661,417.537,668.595z"/>
<path fill-rule="evenodd" clip-rule="evenodd" fill="#FBFBFB" d="M764.861,399.295c0.486-0.978,1.29-1.672,2.101-2.362
	C766.817,398.214,766,398.897,764.861,399.295z"/>
<path fill-rule="evenodd" clip-rule="evenodd" fill="#FBFBFB" d="M772.52,390.172c0.699-0.82,1.396-1.64,2.095-2.46
	C774.563,389.082,773.701,389.764,772.52,390.172z"/>
<path fill-rule="evenodd" clip-rule="evenodd" fill="#FBFBFB" d="M475.468,670.529c1.271-0.643,2.646-0.198,3.962-0.376
	C478.179,671.005,476.792,670.435,475.468,670.529z"/>
<path fill-rule="evenodd" clip-rule="evenodd" fill="#FBFBFB" d="M232.696,515.16c0.68,0.798,1.003,1.722,0.979,2.769
	C232.76,517.214,232.657,516.212,232.696,515.16z"/>
<path fill-rule="evenodd" clip-rule="evenodd" fill="#FBFBFB" d="M379.69,193.455c-0.891,0.637-1.865,1.007-2.979,0.921
	C377.503,193.42,378.57,193.352,379.69,193.455z"/>
<path fill-rule="evenodd" clip-rule="evenodd" fill="#FBFBFB" d="M428.605,181.943c-1.083,0.564-2.246,0.563-3.419,0.476
	C426.21,181.432,427.459,182.054,428.605,181.943z"/>
<path fill-rule="evenodd" clip-rule="evenodd" fill="#FBFBFB" d="M791.418,362.843c0.277-0.963,0.694-1.849,1.425-2.56
	C792.82,361.388,792.511,362.334,791.418,362.843z"/>
<path fill-rule="evenodd" clip-rule="evenodd" fill="#FBFBFB" d="M251.43,598.647c0.946,0.161,1.842,0.406,2.319,1.365
	C252.814,599.831,251.957,599.521,251.43,598.647z"/>
<path fill-rule="evenodd" clip-rule="evenodd" fill="#FBFBFB" d="M513.883,666.21c1.088-0.562,2.285-0.45,3.447-0.553
	C516.335,666.801,515.039,666.071,513.883,666.21z"/>
<path fill-rule="evenodd" clip-rule="evenodd" fill="#FBFBFB" d="M217.326,412.317c0.317,1.121-0.039,2.23-0.056,3.346
	C216.636,414.537,216.571,413.42,217.326,412.317z"/>
<path fill-rule="evenodd" clip-rule="evenodd" fill="#FBFBFB" d="M705.314,501.546c0.374-1.01,0.748-2.019,1.121-3.028
	C706.491,499.686,706.697,500.91,705.314,501.546z"/>
<path fill-rule="evenodd" clip-rule="evenodd" fill="#FBFBFB" d="M232.243,335.983c-0.052,1.024-0.325,1.97-0.986,2.778
	C231.217,337.705,231.315,336.697,232.243,335.983z"/>
<path fill-rule="evenodd" clip-rule="evenodd" fill="#FBFBFB" d="M286.939,612.944c1.03,0.283,1.851,0.778,2,1.96
	C288.054,614.474,287.406,613.802,286.939,612.944z"/>
<path fill-rule="evenodd" clip-rule="evenodd" fill="#FBFBFB" d="M347.961,653.18c0.989,0.17,1.967,0.365,2.74,1.08
	C349.65,654.251,348.574,654.304,347.961,653.18z"/>
<path fill-rule="evenodd" clip-rule="evenodd" fill="#FBFBFB" d="M644.664,603.374c0.419-0.8,1.028-1.407,1.832-1.819
	C646.321,602.6,645.712,603.208,644.664,603.374z"/>
<path fill-rule="evenodd" clip-rule="evenodd" fill="#FBFBFB" d="M656.369,591.311c0.463-0.914,1.132-1.624,2.063-2.071
	C658.127,590.31,657.435,590.996,656.369,591.311z"/>
<path fill-rule="evenodd" clip-rule="evenodd" fill="#FBFBFB" d="M230.326,574.064c0.511,0.905,0.99,1.82,0.937,2.906
	C230.324,576.204,230.235,575.163,230.326,574.064z"/>
<path fill-rule="evenodd" clip-rule="evenodd" fill="#FBFBFB" d="M723.119,432.893c0.646-0.836,1.625-1.146,2.52-1.586
	C725.283,432.604,724.25,432.825,723.119,432.893z"/>
<path fill-rule="evenodd" clip-rule="evenodd" fill="#FBFBFB" d="M796.087,354.173c0.522-0.83,1.045-1.659,1.566-2.49
	C797.568,352.788,797.338,353.802,796.087,354.173z"/>
<path fill-rule="evenodd" clip-rule="evenodd" fill="#FBFBFB" d="M355.574,655.629c1.085,0.024,2.077,0.343,2.98,0.943
	C357.406,656.749,356.341,656.659,355.574,655.629z"/>
<path fill-rule="evenodd" clip-rule="evenodd" fill="#FBFBFB" d="M414.156,668.188c1.159-0.054,2.303,0.013,3.401,0.434
	C416.419,668.511,415.194,669.086,414.156,668.188z"/>
<path fill-rule="evenodd" clip-rule="evenodd" fill="#FBFBFB" d="M496.696,668.629c1.092-0.427,2.231-0.487,3.386-0.448
	C499.055,669.092,497.828,668.506,496.696,668.629z"/>
<path fill-rule="evenodd" clip-rule="evenodd" fill="#FBFBFB" d="M333.033,647.565c1.049-0.092,1.921,0.332,2.732,0.936
	C334.73,648.549,333.761,648.41,333.033,647.565z"/>
<path fill-rule="evenodd" clip-rule="evenodd" fill="#FBFBFB" d="M493.387,669.12c1.021-0.728,2.189-0.471,3.316-0.499
	C495.722,669.613,494.492,668.955,493.387,669.12z"/>
<path fill-rule="evenodd" clip-rule="evenodd" fill="#FBFBFB" d="M431.942,181.448c-1.049,0.636-2.214,0.52-3.362,0.518
	C429.569,180.932,430.818,181.596,431.942,181.448z"/>
<path fill-rule="evenodd" clip-rule="evenodd" fill="#FBFBFB" d="M701.997,512.111c0.374-0.958,0.748-1.917,1.121-2.876
	C703.131,510.345,703.26,511.5,701.997,512.111z"/>
<path fill-rule="evenodd" clip-rule="evenodd" fill="#FBFBFB" d="M231.256,510.837c0.704,0.791,0.904,1.762,0.989,2.774
	C231.316,512.899,231.218,511.893,231.256,510.837z"/>
<path fill-rule="evenodd" clip-rule="evenodd" fill="#FBFBFB" d="M787.862,368.569c0.541-0.838,1.082-1.677,1.623-2.516
	C789.41,367.192,789.19,368.238,787.862,368.569z"/>
<path fill-rule="evenodd" clip-rule="evenodd" fill="#FBFBFB" d="M236.538,585.605c0.846,0.366,1.347,0.99,1.429,1.925
	C237.204,587.101,236.572,586.575,236.538,585.605z"/>
<path fill-rule="evenodd" clip-rule="evenodd" fill="#FBFBFB" d="M658.732,588.905c0.291-0.848,0.963-1.384,1.598-1.949
	C660.401,588.101,659.761,588.661,658.732,588.905z"/>
<path fill-rule="evenodd" clip-rule="evenodd" fill="#FBFBFB" d="M558.59,192.199c-0.846-0.373-1.691-0.746-2.538-1.12
	C557.094,191.009,558.093,191.034,558.59,192.199z"/>
<path fill-rule="evenodd" clip-rule="evenodd" fill="#FBFBFB" d="M264.86,604.805c0.927,0.018,1.767,0.252,2.414,0.97
	C266.328,605.801,265.482,605.582,264.86,604.805z"/>
<path fill-rule="evenodd" clip-rule="evenodd" fill="#FBFBFB" d="M520.192,182.146c-1.009-0.254-2.115-0.07-3.048-0.675
	C518.175,181.631,519.417,180.831,520.192,182.146z"/>
<path fill-rule="evenodd" clip-rule="evenodd" fill="#FBFBFB" d="M526.015,182.895c-1.051,0.078-2.076-0.006-3.044-0.471
	C523.995,182.513,525.121,181.956,526.015,182.895z"/>
<path fill-rule="evenodd" clip-rule="evenodd" fill="#FBFBFB" d="M307.583,632.156c0.912,0.104,1.453,0.67,1.813,1.46
	C308.472,633.525,307.977,632.904,307.583,632.156z"/>
<path fill-rule="evenodd" clip-rule="evenodd" fill="#FBFBFB" d="M309.989,634.124c0.917,0.069,1.449,0.715,1.996,1.336
	C310.941,635.581,310.452,634.873,309.989,634.124z"/>
<path fill-rule="evenodd" clip-rule="evenodd" fill="#FBFBFB" d="M311.96,635.441c0.819,0.28,1.494,0.737,1.894,1.535
	C312.86,636.913,312.267,636.354,311.96,635.441z"/>
<path fill-rule="evenodd" clip-rule="evenodd" fill="#FBFBFB" d="M505.836,179.935c-1.05,0.073-2.079-0.024-3.075-0.388
	C503.793,179.616,504.896,179.122,505.836,179.935z"/>
<path fill-rule="evenodd" clip-rule="evenodd" fill="#FBFBFB" d="M563.332,653.253c0.762-0.52,1.6-0.834,2.518-0.929
	C565.329,653.496,564.303,653.301,563.332,653.253z"/>
<path fill-rule="evenodd" clip-rule="evenodd" fill="#FBFBFB" d="M447.325,179.527c-0.904,0.637-1.919,0.471-2.92,0.407
	C445.286,179.137,446.345,179.615,447.325,179.527z"/>
<path fill-rule="evenodd" clip-rule="evenodd" fill="#FBFBFB" d="M220.256,464.072c0.484,0.941,0.654,1.938,0.513,2.986
	C219.787,466.202,220.361,465.08,220.256,464.072z"/>
<path fill-rule="evenodd" clip-rule="evenodd" fill="#FBFBFB" d="M738.107,423.327c0.608-0.55,1.039-1.35,1.995-1.406
	C739.66,422.705,739.131,423.367,738.107,423.327z"/>
<path fill-rule="evenodd" clip-rule="evenodd" fill="#FBFBFB" d="M747.186,416.111c0.658-0.548,1.316-1.096,1.976-1.644
	C748.926,415.523,748.308,416.121,747.186,416.111z"/>
<path fill-rule="evenodd" clip-rule="evenodd" fill="#FBFBFB" d="M775.887,385.852c0.535-0.665,1.07-1.33,1.604-1.995
	C777.528,384.981,776.929,385.594,775.887,385.852z"/>
<path fill-rule="evenodd" clip-rule="evenodd" fill="#FBFBFB" d="M222.177,474.152c0.48,0.933,0.509,1.937,0.468,2.952
	C221.72,476.242,222.278,475.145,222.177,474.152z"/>
<path fill-rule="evenodd" clip-rule="evenodd" fill="#FBFBFB" d="M840.842,311c0.425-0.593,1.399-0.859,1.115-1.875
	C842.807,310.478,841.992,310.838,840.842,311z"/>
<path fill-rule="evenodd" clip-rule="evenodd" fill="#FBFBFB" d="M698.231,522.682c0.068-0.95,0.419-1.787,1.009-2.529
	C699.333,521.167,699.229,522.103,698.231,522.682z"/>
<path fill-rule="evenodd" clip-rule="evenodd" fill="#FBFBFB" d="M265.307,275.988c-0.095,0.896-0.682,1.41-1.407,1.817
	C263.972,276.893,264.598,276.408,265.307,275.988z"/>
<path fill-rule="evenodd" clip-rule="evenodd" fill="#FBFBFB" d="M666.001,579.793c0.373-0.775,0.855-1.462,1.58-1.952
	C667.581,578.918,666.992,579.518,666.001,579.793z"/>
<path fill-rule="evenodd" clip-rule="evenodd" fill="#FBFBFB" d="M660.305,586.989c0.222-0.876,0.876-1.428,1.498-2.003
	C661.859,586.069,661.271,586.671,660.305,586.989z"/>
<path fill-rule="evenodd" clip-rule="evenodd" fill="#FBFBFB" d="M570.543,650.375c0.749-0.552,1.552-0.963,2.514-0.956
	C572.415,650.255,571.538,650.471,570.543,650.375z"/>
<path fill-rule="evenodd" clip-rule="evenodd" fill="#FBFBFB" d="M516.898,181.47c-0.871,0.044-1.752,0.134-2.514-0.442
	C515.251,181.013,516.188,180.592,516.898,181.47z"/>
<path fill-rule="evenodd" clip-rule="evenodd" fill="#FBFBFB" d="M241.322,315.35c-0.017,0.752-0.42,1.299-0.946,1.782
	C240.329,316.345,240.526,315.688,241.322,315.35z"/>
<path fill-rule="evenodd" clip-rule="evenodd" fill="#FBFBFB" d="M687.604,545.715c0.229-0.758,0.438-1.527,1.067-2.08
	C688.688,544.519,688.527,545.313,687.604,545.715z"/>
<path fill-rule="evenodd" clip-rule="evenodd" fill="#FBFBFB" d="M241.819,591.429c0.628,0.299,1.168,0.688,1.407,1.383
	C242.351,592.764,241.878,592.307,241.819,591.429z"/>
<path fill-rule="evenodd" clip-rule="evenodd" fill="#FBFBFB" d="M814.493,325.902c0.577-0.457,1.149-0.922,1.937-0.95
	C816.059,325.829,815.322,325.96,814.493,325.902z"/>
<path fill-rule="evenodd" clip-rule="evenodd" fill="#FBFBFB" d="M804.176,337.37c0.259-0.753,0.548-1.488,1.149-2.049
	C805.32,336.215,805.179,337.034,804.176,337.37z"/>
<path fill-rule="evenodd" clip-rule="evenodd" fill="#FBFBFB" d="M690.015,540.916c0.363-0.653,0.727-1.306,1.09-1.958
	C691.172,539.851,691.118,540.675,690.015,540.916z"/>
<path fill-rule="evenodd" clip-rule="evenodd" fill="#FBFBFB" d="M735.775,424.792c0.623-0.386,1.246-0.772,1.87-1.158
	C737.46,424.727,736.657,424.823,735.775,424.792z"/>
<path fill-rule="evenodd" clip-rule="evenodd" fill="#FBFBFB" d="M235.092,523.686c-0.099,0.714-0.39,1.324-0.957,1.786
	C234.091,524.682,234.285,524.02,235.092,523.686z"/>
<path fill-rule="evenodd" clip-rule="evenodd" fill="#FBFBFB" d="M697.262,524.607c0.312-0.666,0.363-1.466,1-1.967
	C698.403,523.538,698.309,524.314,697.262,524.607z"/>
<path fill-rule="evenodd" clip-rule="evenodd" fill="#FBFBFB" d="M679.878,559.63c0.215-0.748,0.474-1.47,1.146-1.949
	C680.963,558.52,680.813,559.306,679.878,559.63z"/>
<path fill-rule="evenodd" clip-rule="evenodd" fill="#FBFBFB" d="M537.967,660.961c0.747-0.505,1.549-0.702,2.435-0.436
	C539.699,661.282,538.789,660.879,537.967,660.961z"/>
<path fill-rule="evenodd" clip-rule="evenodd" fill="#FBFBFB" d="M711.266,479.502c-0.051-0.896-0.031-1.78,0.459-2.581
	C711.666,477.798,712.152,478.771,711.266,479.502z"/>
<path fill-rule="evenodd" clip-rule="evenodd" fill="#FBFBFB" d="M686.132,548.588c0.381-0.644,0.761-1.287,1.141-1.93
	C687.328,547.559,687.263,548.389,686.132,548.588z"/>
<path fill-rule="evenodd" clip-rule="evenodd" fill="#FBFBFB" d="M389.188,664.319c0.86-0.104,1.674,0.027,2.428,0.469
	C390.789,664.724,389.868,665.143,389.188,664.319z"/>
<path fill-rule="evenodd" clip-rule="evenodd" fill="#FBFBFB" d="M713.141,469.416c-0.007-0.849-0.046-1.705,0.492-2.444
	C713.599,467.812,714.081,468.757,713.141,469.416z"/>
<path fill-rule="evenodd" clip-rule="evenodd" fill="#FBFBFB" d="M222.643,477.103c0.532,0.714,0.54,1.551,0.559,2.385
	C222.224,478.879,222.748,477.917,222.643,477.103z"/>
<path fill-rule="evenodd" clip-rule="evenodd" fill="#FBFBFB" d="M711.766,476.645c-0.026-0.847-0.075-1.698,0.46-2.438
	C712.167,475.037,712.584,475.958,711.766,476.645z"/>
<path fill-rule="evenodd" clip-rule="evenodd" fill="#FBFBFB" d="M790.299,364.729c0.249-0.709,0.427-1.46,1.129-1.9
	C791.369,363.651,791.206,364.412,790.299,364.729z"/>
<path fill-rule="evenodd" clip-rule="evenodd" fill="#FBFBFB" d="M510.562,666.664c0.757-0.574,1.626-0.419,2.477-0.378
	C512.31,667.046,511.406,666.664,510.562,666.664z"/>
<path fill-rule="evenodd" clip-rule="evenodd" fill="#FBFBFB" d="M712.689,471.817c0.01-0.841,0.004-1.685,0.481-2.433
	C713.117,470.216,713.585,471.151,712.689,471.817z"/>
<path fill-rule="evenodd" clip-rule="evenodd" fill="#FBFBFB" d="M631.056,615.342c0.507-0.42,1.015-0.841,1.521-1.262
	C632.463,614.975,631.938,615.375,631.056,615.342z"/>
<path fill-rule="evenodd" clip-rule="evenodd" fill="#FBFBFB" d="M232.696,579.477c0.622,0.445,0.958,1.044,0.968,1.815
	C232.837,580.955,232.65,580.278,232.696,579.477z"/>
<path fill-rule="evenodd" clip-rule="evenodd" fill="#FBFBFB" d="M248.53,301.427c-0.015,0.756-0.39,1.32-0.954,1.783
	C247.531,302.421,247.728,301.762,248.53,301.427z"/>
<path fill-rule="evenodd" clip-rule="evenodd" fill="#FBFBFB" d="M246.664,304.777c0.051,0.839-0.343,1.467-0.943,1.999
	C245.695,305.95,245.988,305.273,246.664,304.777z"/>
<path fill-rule="evenodd" clip-rule="evenodd" fill="#FBFBFB" d="M757.279,406.996c0.507-0.479,1.013-0.959,1.52-1.438
	C758.787,406.56,758.269,407.027,757.279,406.996z"/>
<path fill-rule="evenodd" clip-rule="evenodd" fill="#FBFBFB" d="M226.001,491.503c0.533,0.725,0.469,1.575,0.509,2.405
	C225.624,493.258,226.09,492.322,226.001,491.503z"/>
<path fill-rule="evenodd" clip-rule="evenodd" fill="#FBFBFB" d="M585.807,643.63c0.613-0.522,1.313-0.835,2.123-0.886
	C587.498,643.7,586.689,643.753,585.807,643.63z"/>
<path fill-rule="evenodd" clip-rule="evenodd" fill="#FBFBFB" d="M707.692,493.388c0.22-0.816,0.14-1.718,0.688-2.44
	C708.263,491.792,708.902,492.851,707.692,493.388z"/>
<path fill-rule="evenodd" clip-rule="evenodd" fill="#FBFBFB" d="M712.212,474.22c-0.059-0.849-0.022-1.679,0.494-2.41
	C712.632,472.632,713.098,473.564,712.212,474.22z"/>
<path fill-rule="evenodd" clip-rule="evenodd" fill="#FBFBFB" d="M581.037,646.035c0.572-0.601,1.241-0.987,2.103-0.949
	C582.618,645.801,581.899,646.077,581.037,646.035z"/>
<path fill-rule="evenodd" clip-rule="evenodd" fill="#FBFBFB" d="M245.744,306.743c-0.09,0.764-0.223,1.504-1.045,1.856
	C244.81,307.847,245,307.138,245.744,306.743z"/>
<path fill-rule="evenodd" clip-rule="evenodd" fill="#E07833" d="M447.277,667.254c-9.419,0.043-18.816-0.64-28.16-1.604
	c-10.355-1.068-20.607-2.967-30.845-4.965c-12.555-2.449-24.828-5.818-36.931-9.862c-11.224-3.749-22.251-8.047-32.262-14.44
	c-6.634-4.238-12.738-9.226-18.531-14.614c-3.741-3.479-7.163-7.249-11.213-10.976c3.272-0.654,6.16,0.144,8.969,0.406
	c6.526,0.61,13.047,0.986,19.585,0.769c2.366-0.079,4.163,0.823,5.898,2.121c5.995,4.483,11.967,8.996,17.946,13.501
	c0.97,0.73,1.805,0.878,2.607-0.3c0.842-1.235,0.435-1.826-0.711-2.648c-5.555-3.988-11.017-8.104-16.835-12.414
	c2.173-0.252,4-0.548,5.837-0.658c3.82-0.231,7.644-0.456,11.468-0.498c1.712-0.02,1.997-0.763,1.885-2.204
	c-0.129-1.679-0.995-1.451-2.304-1.358c-5.789,0.41-11.58,1.025-17.71,0.569c4.283-4.445,8.369-8.73,12.665-12.825
	c3.518-3.354,6.831-6.925,10.229-10.405c0.875-0.896,0.257-1.54-0.352-2.248c-0.642-0.747-1.125-0.622-1.764,0.007
	c-0.735,0.723-1.623,1.292-2.354,2.019c-5.978,5.938-11.919,11.916-17.911,17.841c-1.524,1.507-2.707,3.29-4.438,4.667
	c-1.451,1.152-2.795,1.517-4.543,1.544c-10.068,0.152-20.047-0.972-30.038-1.955c-1.609-0.158-2.59-1.206-3.48-2.33
	c-10.219-12.919-19.295-26.564-27.04-41.139c-6.783-12.765-13.03-25.75-17.819-39.379c-3.775-10.747-7.082-21.648-9.833-32.726
	c-2.572-10.358-4.71-20.799-6.503-31.304c-0.922-5.399-1.127-10.923-1.598-16.395c-0.808-9.386-1.295-18.793-0.917-28.209
	c0.319-7.938,0.905-15.859,1.689-23.779c0.984-9.939,3.183-19.637,5.188-29.353c1.395-6.754,3.652-13.375,6.066-19.893
	c2.796-7.552,5.185-15.255,8.956-22.426c5.892-11.205,11.137-22.755,18.74-33.012c3.028-4.085,5.729-8.433,8.888-12.43
	c4.736-5.992,9.664-11.815,14.991-17.315c6.552-6.764,13.667-12.911,20.579-19.275c5.451-5.02,11.646-9.147,17.722-13.377
	c5.436-3.783,11.291-6.905,16.979-10.291c8.054-4.793,16.584-8.541,25.26-11.983c6.149-2.44,12.267-5.052,18.594-6.929
	c10.908-3.236,21.905-6.162,33.16-8.107c9.011-1.558,18.039-2.977,27.106-4.086c5.681-0.696,11.439-0.788,17.167-1.074
	c4.349-0.217,8.711-0.544,13.055-0.406c6.189,0.197,12.384,0.222,18.569,0.73c4.363,0.358,8.736,0.583,13.098,1.044
	c8.563,0.907,16.985,2.559,25.39,4.38c15.342,3.325,30.061,8.485,44.329,14.948c5.948,2.694,11.685,5.815,17.381,9.048
	c7.58,4.303,14.771,9.135,21.795,14.241c7.94,5.772,15.257,12.285,22.391,19.03c9.458,8.942,17.891,18.786,25.869,29.021
	c1.777,2.282,3.892,4.451,4.895,7.3c1.775,3.21,1.541,6.832,1.945,10.285c0.993,8.484,1.701,16.993,2.094,25.54
	c0.55,11.977,1.158,23.954,0.839,35.937c-0.28,10.531-0.725,21.054-1.761,31.562c-1.832,18.568-4.592,36.964-8.973,55.101
	c-3.931,16.27-8.89,32.23-15.289,47.701c-8.645,20.898-19.063,40.846-32.248,59.297c-8.333,11.661-17.432,22.642-27.304,33.051
	c-9.321,9.828-19.304,18.891-29.729,27.474c-10.193,8.392-21.038,15.931-32.156,23.043c-9.227,5.902-18.768,11.302-28.488,16.341
	c-13.921,7.216-28.273,13.514-42.886,19.197C451.994,666.624,449.802,667.831,447.277,667.254z"/>
<path fill-rule="evenodd" clip-rule="evenodd" fill="#E46610" d="M447.277,667.254c3.498-0.551,6.698-2.024,9.919-3.359
	c7.808-3.232,15.667-6.371,23.296-9.991c7.259-3.443,14.555-6.825,21.563-10.814c6.158-3.505,12.415-6.835,18.45-10.557
	c5.949-3.669,11.729-7.587,17.523-11.494c6.545-4.413,12.706-9.313,18.985-14.06c3.798-2.87,7.316-6.118,10.882-9.284
	c3.801-3.375,7.628-6.735,11.231-10.316c4.793-4.763,9.365-9.745,13.965-14.701c3.636-3.918,7.122-7.956,10.444-12.12
	c4.068-5.098,7.919-10.376,11.699-15.692c6.801-9.562,12.738-19.649,18.201-30.035c5.427-10.319,10.367-20.862,14.571-31.727
	c5.003-12.931,9.103-26.147,12.589-39.587c2.801-10.793,4.788-21.73,6.851-32.653c1.278-6.771,1.82-13.688,2.553-20.555
	c1.079-10.127,1.742-20.274,2.094-30.469c0.283-8.228,0.479-16.458,0.192-24.656c-0.26-7.477-0.139-14.981-0.85-22.441
	c-0.73-7.664-1.176-15.353-2.25-22.991c-0.397-2.819-0.734-5.665-1.058-8.502c4.529,5.294,7.905,11.366,11.436,17.309
	c3.702,6.233,7.245,12.583,10.475,19.072c5.189,10.426,9.768,21.121,13.7,32.108c2.878,8.042,5.605,16.116,7.664,24.397
	c1.418,5.705,3.121,11.35,3.916,17.207c0.161,1.191,0.313,2.367,0.313,3.559c0.001,8.159,0.255,16.33-0.099,24.475
	c-0.434,10.001-1.35,19.969-2.598,29.925c-1.377,10.984-3.351,21.841-5.548,32.665c-0.915,4.51-2.374,8.906-3.523,13.37
	c-2.308,8.966-5.286,17.73-8.711,26.302c-3.011,7.532-6.338,14.95-10.137,22.166c-4.505,8.555-9.249,16.947-14.771,24.868
	c-6.524,9.358-13.738,18.141-21.728,26.341c-10.495,10.771-21.841,20.462-34.286,28.86c-10.273,6.933-20.995,13.142-32.309,18.203
	c-12.598,5.636-25.498,10.455-38.822,14.216c-12.132,3.425-24.451,5.829-36.842,7.891c-6.493,1.08-13.064,1.75-19.67,2.168
	c-12.259,0.775-24.508,1.53-36.797,1.324C448.947,667.659,448.019,667.967,447.277,667.254z"/>
<path fill-rule="evenodd" clip-rule="evenodd" fill="#FEFEFE" d="M280.892,605.471c-8.034-1.853-15.43-3.787-22.34-7.176
	c-6.933-3.398-13.207-7.66-18.195-13.736c-4.86-5.92-7.757-12.684-8.936-20.104c-1.96-12.334,0.466-24.151,5.071-35.605
	c0.111-0.276,0.33-0.51,0.678-1.034C248.142,555.698,262.038,581.66,280.892,605.471z"/>
<path fill-rule="evenodd" clip-rule="evenodd" fill="#B03F0D" d="M589.038,401.318c-0.145,17.29-6.055,29.954-17.714,39.701
	c-7.238,6.052-15.801,9.274-25.297,10.279c-8.107,0.859-15.734-0.64-23.024-3.798c-9.201-3.986-16.156-10.562-21.079-19.388
	c-4.264-7.646-6.253-15.839-6.075-24.453c0.211-10.187,3.369-19.45,9.538-27.761c4.77-6.426,10.605-11.483,17.543-15.228
	c4.572-2.468,9.651-3.846,14.817-4.446c8.808-1.022,17.303,0.368,25.292,4.279c7.759,3.798,14.012,9.332,18.605,16.692
	C585.937,384.071,589.431,394.306,589.038,401.318z"/>
<path fill-rule="evenodd" clip-rule="evenodd" fill="#B03F0D" d="M380.502,456.914c3.501-3.694,7.815-6.332,12.259-8.583
	c5.528-2.801,11.313-5.058,17.573-5.916c7.86-1.076,15.684-1.285,23.526,0.032c0.616,0.103,1.255,0.065,2.24,0.109
	c-3.072-2.989-6.584-4.74-10.139-6.141c-7.862-3.097-16.108-4.506-24.566-3.869c-6.423,0.484-12.731,1.804-18.942,3.541
	c-0.456,0.127-0.935,0.169-1.403,0.25c-0.527,0.281-0.966,0.383-0.937-0.462c4.467-1.915,8.917-3.933,13.677-4.977
	c10.393-2.279,20.871-3,31.168,0.237c9.152,2.876,17.067,7.77,22.849,15.727c1.668,2.295,3.542,4.436,5.095,7.152
	c-3.382-0.788-6.101-2.5-9.056-3.606c-10.149-3.802-20.558-5.141-31.393-4.133c-11.339,1.055-21.451,5.16-30.938,11.169
	C380.914,457.776,380.494,457.756,380.502,456.914z"/>
<path fill-rule="evenodd" clip-rule="evenodd" fill="#E46610" d="M542.326,211.178c-0.32,0.48-0.64,0.96-0.96,1.44
	c-2.239,2.057-4.45,4.21-7.765,4.26c-2.772,0.041-5.539,0.221-8.242-0.831c-7.771-3.024-9.402-12.688-4.563-18.03
	c0.43-0.475,0.754-1.031,1.168-1.521c3.637-2.898,11.959-4.1,15.365-1.692c5.107,3.61,7.659,7.888,5.602,14.835
	C542.778,210.155,542.631,210.706,542.326,211.178z"/>
<path fill-rule="evenodd" clip-rule="evenodd" fill="#E46610" d="M545.683,231.347c0.642,0.958,1.282,1.916,1.924,2.874
	c0.406,0.658,0.679,1.375,0.926,2.104c-0.156,5.043-0.155,10.069-4.577,13.774c-4.179,3.502-9.34,3.915-13.887,0.789
	c-5.689-4.325-4.291-14.469-0.088-18.77C533.367,228.651,540.594,227.113,545.683,231.347z"/>
<path fill-rule="evenodd" clip-rule="evenodd" fill="#B03F0D" d="M571.872,340.673c-1.806-3.17-3.155-6.126-5.026-8.817
	c-5.407-7.773-13.019-9.221-21.728-8.118c-4.223,0.534-8.318,1.625-12.485,2.435c7.597-5.766,15.708-9.921,25.544-6.881
	c7.785,2.406,11.697,8.404,13.394,16.029C571.928,336.924,572.411,338.582,571.872,340.673z"/>
<path fill-rule="evenodd" clip-rule="evenodd" fill="#B03F0D" d="M369.658,407.766c2.596-11.988,10.798-21.741,22.854-24.064
	c5.401-1.041,13.42,0.551,17.507,5.013c-2.589-0.099-4.907-0.791-7.296-0.969c-7.826-0.588-14.809,1.281-20.681,6.566
	c-3.776,3.4-7.429,6.95-10.16,11.309C371.342,406.481,370.694,407.243,369.658,407.766z"/>
<path fill-rule="evenodd" clip-rule="evenodd" fill="#ECA25C" d="M265.34,365.756c-4.294-1.088-4.154-8.929-1.728-11.487
	c0.599-0.631,1.16-1.297,1.739-1.948c1.175-0.882,2.583-1.297,3.933-1.729c2.771-0.887,6.78,1.636,7.307,4.728
	c0.687,4.03-1.149,10.092-6.386,11.161C268.396,366.849,266.925,366.22,265.34,365.756z"/>
<path fill-rule="evenodd" clip-rule="evenodd" fill="#E6814E" d="M405.989,473.755c2.84-1.594,6.071-1.928,9.158-2.283
	c5.677-0.651,11.419-1.025,17.13-0.979c4.602,0.038,9.112,1.111,12.977,3.962c1.953,1.441,2.18,4.385,0.567,6.302
	c-4.346,5.169-10.159,7.97-16.275,10.349c-9.28,3.61-18.95,5.068-28.83,5.772c-5.705,0.407-11.212-0.275-16.702-1.52
	c-5.384-1.22-7.068-5.354-3.601-9.526c3.261-3.924,7.672-6.371,12.62-7.754c-0.133,1.584-1.539,1.889-2.596,2.439
	c-2.704,1.41-5.223,3.043-7.365,5.236c-2.768,2.834-2.346,5.913,1.105,7.813c1.719,0.946,3.639,1.263,5.526,1.357
	c3.71,0.185,7.391,1.181,11.136,0.453c7.642-0.522,15.227-1.372,22.509-3.947c4.657-1.646,9.379-3.127,13.594-5.821
	c1.77-1.131,3.332-2.484,4.664-4.084c2.264-2.718,1.779-5.483-1.393-7.109c-2.495-1.278-5.215-1.906-8.061-1.943
	c-8.057-0.105-16.111-0.229-23.988,1.914c-0.653-0.008-1.308-0.018-1.901-0.353C406.171,473.943,406.08,473.849,405.989,473.755z"/>
<path fill-rule="evenodd" clip-rule="evenodd" fill="#B03F0D" d="M471.654,480.221c2.597,1.046,5.003,2.396,7.506,3.542
	c5.616,2.571,9.181,2.078,12.079-4.662c1.379-3.205,2.559-6.476,3.839-9.739c1.485,6.479,1.027,12.661-3.227,18.017
	c-2.336,2.943-7.317,3.634-11.31,1.774C476.543,487.291,473.77,484.086,471.654,480.221z"/>
<path fill-rule="evenodd" clip-rule="evenodd" fill="#ECA25C" d="M246.139,377.271c0.313-0.325,0.626-0.65,0.939-0.975
	c2.367-2.579,5.896-3.333,8.87-1.895c2.848,1.377,3.826,3.904,3.154,8.152l-0.001-0.001c-1.188,4.75-8.78,6.076-11.688,3.134
	C245.507,383.76,244.851,380.608,246.139,377.271z"/>
<path fill-rule="evenodd" clip-rule="evenodd" fill="#E27226" d="M573.526,230.857c0.345-1.704,1.936-2.578,3.103-3.035
	c2.688-1.051,5.526-2.543,8.521-1.7c3.284,0.923,6.185,2.893,7.539,6.063c3.125,7.316,0.973,15.137-5.587,19.792
	c-5.364,3.806-11.517,2.745-15.81-2.244c-2.879-3.345-2.187-6.89-1.871-10.511c0.138-1.578,0.13-3.404,1.705-4.525
	c0.08,0.092,0.161,0.183,0.242,0.274c0.345,1.67-0.146,3.321-0.12,4.992c0.087,5.687,2.868,9.518,8.128,10.976
	c4.53,1.256,8.607-0.696,11.491-5.508c2.989-6.738,1.248-14.115-6.078-16.47c-2.519-0.81-5.039-0.279-7.498,0.604
	C576.044,230.011,574.994,231.055,573.526,230.857z"/>
<path fill-rule="evenodd" clip-rule="evenodd" fill="#ECA25B" d="M250.923,342.717c-0.153-0.164-0.306-0.328-0.459-0.492
	c-1.247-3.286,0.055-5.8,2.227-8.235c2.221-2.489,4.998-2.827,7.872-2.2c1.951,0.425,3.176,2.052,3.491,4.156
	c0.075,0.506,0.205,1.019-0.142,1.485l-0.023-0.004c-1.446,5.164-4.131,6.042-9.024,7.021
	C253.398,344.74,251.885,344.098,250.923,342.717z"/>
<path fill-rule="evenodd" clip-rule="evenodd" fill="#E27226" d="M545.683,231.347c-3.141-1.827-6.407-2.399-10.038-1.589
	c-4.057,0.905-6.572,3.471-7.784,7.124c-1.616,4.874-1.675,9.709,2.465,13.66c2.896,2.677,8.216,3.042,11.559,1.279
	c5.177-2.732,7.119-8.604,6.203-15.679c-0.328-0.598-0.557-1.221-0.48-1.921c0.914,0.393,1.162,1.295,1.499,2.08
	c2.772,6.466-0.21,14.583-6.645,17.302c-2.278,0.963-4.877,1.031-7.482,0.377c-2.447-0.615-4.365-1.557-6.086-3.554
	c-4.476-5.192-4.624-14.537,0.065-19.38c3.04-3.14,9.042-4.074,13.041-2.127C543.309,229.555,544.999,229.723,545.683,231.347z"/>
<path fill-rule="evenodd" clip-rule="evenodd" fill="#E78253" d="M557.688,484.802c-5.226,1.023-10.532,1.369-15.822,1.816
	c-5.016,0.423-9.977-0.283-14.904-1.12c-2.651-0.451-5.227-1.245-7.782-2.121c-4.014-1.376-5.348-6.09-2.438-9.206
	c3.06-3.276,7.071-5.039,11.128-6.692c0.81-0.329,1.637-0.613,2.456-0.918c0.753-0.341,1.523-0.41,2.314-0.143
	c0.303,1.785-1.169,1.762-2.212,2.179c-3.617,0.883-6.869,2.567-9.697,4.926c-3.659,3.05-2.996,6.945,1.447,8.705
	c3.702,1.466,7.504,2.286,11.57,2.563c4.717,0.32,9.36,0.108,14.037-0.142c0.798-0.043,1.59-0.066,2.354-0.334
	c2.356-0.268,4.618-1.132,7.019-1.127c0.804,0.024,1.626-0.046,2.336,0.456C559.798,485.442,558.02,483.994,557.688,484.802z"/>
<path fill-rule="evenodd" clip-rule="evenodd" fill="#E47D43" d="M532.741,466.575c-0.805-0.004-1.61-0.009-2.416-0.014
	c2.368-1.092,4.893-1.615,7.395-2.292c2.812-0.761,5.784-0.505,8.506-1.686c0.701-0.304,1.722,0.227,2.539,0.072
	c4.918-0.934,9.994-1.542,14.852-1.012c6.209,0.676,12.745,0.887,18.3,4.47c3.047,1.964,3.737,5.207,1.241,7.86
	c-4.487,4.771-10.231,7.314-16.414,8.825c-2.992,0.73-5.869,2.122-9.056,2.003c0.411-0.777,1.509-0.183,1.92-0.959
	c0.396-1.022,1.335-0.974,2.189-1.15c6.324-1.31,12.284-3.468,17.419-7.532c0.828-0.655,1.501-1.418,1.954-2.388
	c1.306-2.795,0.604-4.706-2.138-6.121c-3.538-1.827-7.383-2.637-11.24-3.173c-9.368-1.303-18.617-0.26-27.759,1.954
	c-0.326,0.176-0.655,0.345-0.998,0.484c-0.226,0.094-0.461,0.156-0.701,0.199c-1.184,0.093-2.373,0.162-3.497,0.612
	C534.121,466.917,533.398,467.176,532.741,466.575z"/>
<path fill-rule="evenodd" clip-rule="evenodd" fill="#E4843E" d="M259.102,383.513c-0.122,5.844-6.897,10.536-12.163,7.934
	c-2.116-1.046-3.546-2.471-3.769-4.985c-0.29-3.254,0.019-6.275,2.485-8.714c0.414,1.437-0.295,2.787-0.331,4.197
	c-0.081,3.254,0.837,5.389,3.292,6.271c2.632,0.946,5.134,0.446,7.414-1.318C257.275,385.934,257.655,384.25,259.102,383.513z"/>
<path fill-rule="evenodd" clip-rule="evenodd" fill="#E36D1D" d="M522.167,196.778c0.02,0.816-0.602,1.254-1.049,1.801
	c-4.976,6.098-2.225,15.214,5.546,17.21c4.56,1.171,9.594,1.509,13.43-2.607c0.344-0.368,0.771-0.55,1.272-0.564
	c-1.081,1.479-2.367,2.753-3.841,3.84c-5.18,2.75-10.502,2.781-15.458-0.141c-4.426-2.609-5.769-7.764-4.224-13.301
	c0.065-0.664-0.223-1.415,0.478-1.921c0.642-1.906,1.714-3.469,3.535-4.435C521.96,196.7,522.063,196.739,522.167,196.778z"/>
<path fill-rule="evenodd" clip-rule="evenodd" fill="#E36D1D" d="M542.326,211.178c0.537-3.667,1.48-7.367-0.636-10.868
	c-2.165-3.582-5.007-5.939-9.523-5.988c-3.604-0.04-6.977,0.365-10,2.456l-0.005-0.002c-0.303-0.351-0.266-0.714-0.046-1.086
	c4.679-4.426,13.961-4.987,18.699-0.667c2.93,2.67,4.646,6.26,3.583,10.521c-0.229,0.915,0.03,1.942-0.632,2.754
	C543.559,209.394,543.125,210.377,542.326,211.178z"/>
<path fill-rule="evenodd" clip-rule="evenodd" fill="#E68C46" d="M265.34,365.756c1.487-0.249,2.823,0.691,4.438,0.25
	c4.64-1.27,5.919-4.581,6.247-8.881c0.283-3.718-3.798-7.216-7.324-5.993c-1.12,0.388-2.233,0.792-3.35,1.189
	c4.155-3.719,9.128-2.827,11.177-0.019c1.964,2.691,1.787,5.928,0.786,8.885C275.843,365.537,269.838,369.342,265.34,365.756z"/>
<path fill-rule="evenodd" clip-rule="evenodd" fill="#E8954E" d="M259.102,383.513c-1.256,2.797-3.029,5.082-6.24,5.666
	c-5.498,1-9.47-2.62-7.95-8.917c0.205-0.848,0.494-1.676,0.744-2.513c0.161-0.159,0.323-0.318,0.485-0.477
	c0,0.955,0.026,1.912-0.005,2.866c-0.132,4.058,0.721,4.813,3.827,6.264c2.313,1.081,6.234-0.292,7.907-2.45
	c0.383-0.495,0.565-1.156,1.232-1.399C259.101,382.873,259.102,383.193,259.102,383.513z"/>
<path fill-rule="evenodd" clip-rule="evenodd" fill="#E27329" d="M543.767,208.298c0.247-3.292,0.556-6.396-1.03-9.708
	c-1.914-3.997-5.325-5.373-8.856-5.784c-4.04-0.47-8.254,0.29-11.716,3.012c-0.161,0.173-0.322,0.165-0.482-0.001
	c1.676-2.323,4.156-3.511,6.779-4.028c4.746-0.937,9.323-0.429,13.284,2.8C545.224,197.423,546.397,205.148,543.767,208.298z"/>
<path fill-rule="evenodd" clip-rule="evenodd" fill="#E27126" d="M517.844,203.017c0,1.597-0.022,3.195,0.004,4.792
	c0.082,4.768,4.248,8.933,8.949,9.685c3.751,0.599,7.223,0.024,10.729-1.035c-0.556,1.487-2.022,1.381-3.178,1.789
	c-3.067,1.084-6.245,1.147-9.363,0.481c-5.635-1.203-7.51-4.401-8.017-9.532C516.769,207.181,516.102,204.859,517.844,203.017z"/>
<path fill-rule="evenodd" clip-rule="evenodd" fill="#E4833D" d="M263.911,337.431c-0.005-0.48-0.01-0.961-0.014-1.441
	c-0.395-0.53-0.124-1.219-0.425-1.77c-0.504-2.983-2-4.619-4.715-5.157c-2.241-0.444-6.012,1.374-7.328,3.627
	c-0.928,1.589-1.508,3.327-1.763,5.16c-0.098,0.7-0.021,1.452-0.645,1.979c-2.565-3.786,1.146-11.845,5.657-12.98
	c5.108-1.285,10.083,1.283,9.69,6.899C264.281,334.979,264.835,336.303,263.911,337.431z"/>
<path fill-rule="evenodd" clip-rule="evenodd" fill="#E36C1C" d="M573.526,230.857c2.894-1.983,6.057-3.128,9.602-2.865
	c4.623,0.342,9.724,4.657,9.567,9.531c-0.089,2.78,0.913,5.801-1.405,8.218c-0.89-1.457-0.025-2.932-0.025-4.396
	c0.001-4.452-1.386-8.111-5.585-10.25c-3.487-1.776-6.92-1.151-10.31,0.302c-0.777,0.333-1.348,1.159-2.345,0.973
	c-0.28-0.349-0.235-0.692,0.021-1.031C573.206,231.178,573.366,231.018,573.526,230.857z"/>
<path fill-rule="evenodd" clip-rule="evenodd" fill="#E9865C" d="M400.713,495.843c-0.466,0.603-1.146,0.536-1.759,0.469
	c-4.317-0.474-8.694-0.322-12.956-1.384c-2.382-0.594-4.555-1.757-5.28-4c-0.779-2.411,0.566-4.487,2.496-6.219
	c1.975-1.772,4.102-3.248,6.439-4.45c1.2-0.618,2.417-1.199,3.379-2.18c0.321-0.159,0.641-0.318,0.961-0.477
	c0.586-0.364,1.207-0.285,1.833-0.145c0.31,1.367-0.889,1.49-1.642,1.874c-2.486,1.269-5,2.481-7.305,4.075
	c-1.061,0.732-1.984,1.587-2.727,2.656c-2.029,2.921-1.498,5.396,1.694,7.089c2.373,1.26,4.981,1.608,7.651,1.591
	C395.957,494.728,398.418,494.753,400.713,495.843z"/>
<path fill-rule="evenodd" clip-rule="evenodd" fill="#E68D46" d="M249.021,339.83c0.085-4.694,1.243-8.606,6.072-10.836
	c3.964-1.83,8.727,0.674,8.809,5.076c-0.852,0.181-1.032-0.598-1.407-1.037c-2.198-2.567-5.415-2.713-8.212-0.796
	c-3.449,2.364-4.01,5.823-4.296,9.506C249.664,341.105,249.342,340.467,249.021,339.83z"/>
<path fill-rule="evenodd" clip-rule="evenodd" fill="#E99952" d="M249.985,341.743c0.114-1.727-0.142-3.445,0.34-5.188
	c1.303-4.719,5.795-7.257,10.421-5.847c1.77,0.54,2.074,2.275,3.155,3.362c-0.001,0.64-0.003,1.28-0.004,1.92
	c-2.057-3.776-4.028-4.615-8.378-3.563c-1.831,0.442-4.841,4.979-5.042,7.644c-0.055,0.714-0.011,1.436-0.013,2.154
	C250.304,342.064,250.145,341.903,249.985,341.743z"/>
<path fill-rule="evenodd" clip-rule="evenodd" fill="#E8924C" d="M259.103,382.555c-0.003-5.779-2.049-8.219-6.771-8.175
	c-2.001,0.019-3.665,0.831-5.253,1.917c1.311-2.666,5.31-4.476,8.232-3.728c2.703,0.691,4.316,3.003,4.25,6.325
	C259.536,380.113,260.033,381.436,259.103,382.555z"/>
<path fill-rule="evenodd" clip-rule="evenodd" fill="#E58A44" d="M263.424,339.831c-0.858,4.959-6.31,7.802-10.565,5.522
	c-0.712-0.381-1.435-0.711-1.444-1.678c4.725,1.592,8.521,0.374,11.371-3.744C262.924,339.73,263.188,339.723,263.424,339.831z"/>
<path fill-rule="evenodd" clip-rule="evenodd" fill="#E99952" d="M263.424,339.831c-1.359,1.522-2.53,3.282-4.379,4.249
	c-2.579,1.347-5.156,1.043-7.63-0.405c-0.375-0.211-0.47-0.566-0.491-0.958c3.764,2.648,10.475,0.405,12.964-5.291
	C263.964,338.273,263.864,339.084,263.424,339.831z"/>
<path fill-rule="evenodd" clip-rule="evenodd" fill="#E6814E" d="M395.918,477.609c-0.641-0.002-1.283-0.005-1.924-0.007
	c3.838-1.78,7.721-3.424,11.995-3.847l0.009,0.011c-0.69,2.002-2.914,1.357-4.152,2.415
	C399.908,476.81,398.161,478.246,395.918,477.609z"/>
<path fill-rule="evenodd" clip-rule="evenodd" fill="#BB4C16" d="M380.502,456.914c0.214,0.416,0.593,0.514,1.015,0.529
	c-1.798,1.354-3.597,2.708-5.396,4.063C376.891,459.263,378.94,458.331,380.502,456.914z"/>
<path fill-rule="evenodd" clip-rule="evenodd" fill="#E27126" d="M521.682,195.816c0.161,0,0.322,0,0.482,0.001
	c-0.001,0.319-0.001,0.639-0.002,0.958c-1.739,1.032-2.707,2.75-3.841,4.32C518.267,198.588,520.236,197.369,521.682,195.816z"/>
<path fill-rule="evenodd" clip-rule="evenodd" fill="#C1531A" d="M380.115,435.875c0.2,0.382,0.567,0.423,0.936,0.462
	c-1.341,0.817-2.785,1.282-4.614,1.422C377.564,436.508,378.941,436.393,380.115,435.875z"/>
<path fill-rule="evenodd" clip-rule="evenodd" fill="#E27226" d="M573.046,231.339c0,0.32,0,0.64,0,0.96
	c-0.173,1.17-0.342,2.344-1.91,2.407l-0.01-0.008C571.475,233.411,571.842,232.136,573.046,231.339z"/>
<path fill-rule="evenodd" clip-rule="evenodd" fill="#FEFEFE" d="M499.05,404.621c-0.146-23.857,20.408-45.531,43.986-45.359
	c23.793,0.173,42.73,19.494,42.729,44.04c-0.002,25.104-19.861,45.026-44.754,44.894C518.113,448.075,498.89,428.112,499.05,404.621
	z"/>
<path fill-rule="evenodd" clip-rule="evenodd" fill="#E36C1B" d="M548.087,236.141c1.071,1.461,1.254,3.094,0.713,4.759
	c-0.604,1.855-0.51,3.803-1.28,5.687c-2.73,6.671-10.302,8.654-16.353,5.295c-0.554-0.307-0.813-0.735-0.842-1.34
	c5.754,3.2,10.699,2.173,14.895-2.608c1.397-1.593,2.081-3.509,2.258-5.41C547.675,240.401,548.094,238.286,548.087,236.141z"/>
<path fill-rule="evenodd" clip-rule="evenodd" fill="#EC8C70" d="M395.918,477.609c1.918-0.644,3.836-1.287,5.754-1.931
	c2.089-0.613,4.185-1.205,6.245-1.914c2.89-0.512,5.761-1.235,8.674-1.493c7.38-0.654,14.839-1.324,22.082,0.69
	c5.503,1.531,6.695,5.913,2.756,9.846c-3.622,3.615-8.069,5.605-12.686,7.414c-9.013,3.53-18.324,5.555-28.03,5.621
	c-4.032-0.325-8.085-0.49-12.086-1.033c-2.632-0.357-5.091-1.495-6.126-4.252c-0.852-2.268,0.703-5.292,3.29-7.191
	C388.947,481.048,392.63,479.681,395.918,477.609z"/>
<path fill-rule="evenodd" clip-rule="evenodd" fill="#E9865C" d="M407.917,473.765c-1.893,1.253-4.044,1.663-6.245,1.914
	c1.441-0.638,2.883-1.274,4.325-1.912C406.638,473.766,407.277,473.765,407.917,473.765z"/>
<path fill-rule="evenodd" clip-rule="evenodd" fill="#E46610" d="M571.136,234.706c1.104-0.43,1.028-1.8,1.91-2.407
	c5.92-5.162,14.516-3.006,17.316,2.188c1.96,3.636,1.757,7.409,0.928,11.254c-2.248,4.455-7.09,7.086-11.231,6.102
	c-5.872-1.396-9.385-5.598-9.418-11.216C570.629,238.634,570.626,236.65,571.136,234.706z"/>
<path fill-rule="evenodd" clip-rule="evenodd" fill="#E7855A" d="M539.44,465.117c4.009-1.642,8.297-1.85,12.513-2.374
	c4.896-0.608,9.8-0.692,14.724-0.05c4.667,0.608,9.241,1.572,13.449,3.669c3.242,1.617,3.178,6.396,0.089,8.854
	c-5.664,4.507-12.127,7.121-19.259,8.174c-0.462,0.068-0.899,0.298-1.349,0.452c-0.8,0-1.6,0-2.4-0.001
	c0.227-1.517,1.667-0.9,2.467-1.412c5.543-1.045,10.745-3.015,15.66-5.766c0.351-0.196,0.693-0.4,0.985-0.678
	c1.684-1.603,3.729-3.165,3.054-5.828c-0.609-2.402-2.741-3.413-4.968-4.024c-6.818-1.872-13.701-2.747-20.811-1.966
	c-3.969,0.436-7.902,1.043-11.853,1.588C540.92,465.738,540.069,465.82,539.44,465.117z"/>
<path fill-rule="evenodd" clip-rule="evenodd" fill="#EA8866" d="M550.007,484.802c-3.567,0.717-7.19,1.111-10.805,0.919
	c-5.767-0.309-11.635-0.22-17.042-2.781c-2.174-1.03-4.263-2.074-4.459-4.995c-0.123-1.828,0.775-3.118,1.887-4.179
	c3.027-2.89,6.65-4.789,10.738-5.763c-0.465,2.035-2.713,1.647-3.815,2.818c-1.581,0.907-3.331,1.507-4.643,2.888
	c-3.043,3.2-2.211,6.93,1.931,8.449c3.316,1.217,6.77,1.807,10.269,1.972c2.843,0.135,5.67,1.082,8.54,0.253
	c0.592-0.196,1.185-0.382,1.82-0.347c1.383,0.218,2.781,0.073,4.172,0.151C549.138,484.236,549.645,484.354,550.007,484.802z"/>
<path fill-rule="evenodd" clip-rule="evenodd" fill="#EC8E77" d="M526.48,470.397c0.861-1.473,2.896-1.062,3.846-2.394
	c0.992-0.161,1.879-0.498,2.415-1.428c0.635-0.157,1.27-0.314,1.903-0.472c1.348,0.345,2.57-0.265,3.842-0.497
	c0.156-0.006,0.313-0.011,0.468-0.016c0.604-0.376,1.243-0.226,1.878-0.126c0.355,0.795-0.301,1.027-0.779,1.147
	c-4.379,1.103-8.571,2.787-12.883,4.099C526.903,470.686,526.674,470.581,526.48,470.397z"/>
<path fill-rule="evenodd" clip-rule="evenodd" fill="#EC8E77" d="M550.007,484.802c-0.481-0.002-0.962-0.005-1.442-0.007
	c-0.164-0.23-0.147-0.446,0.05-0.648c0.2-0.148,0.421-0.251,0.661-0.314c0.956-0.169,1.951-0.107,2.875-0.483
	c2.386-0.375,4.698-1.464,7.195-0.736c0.092,0.092,0.182,0.187,0.273,0.28c-0.579,0.888-1.838,0.048-2.412,0.949
	C554.807,484.162,552.407,484.481,550.007,484.802z"/>
<path fill-rule="evenodd" clip-rule="evenodd" fill="#EA8866" d="M538.486,465.606c-1.218,0.646-2.406,1.526-3.842,0.497
	C535.893,465.68,537.169,465.485,538.486,465.606z"/>
<path fill-rule="evenodd" clip-rule="evenodd" fill="#EA8866" d="M540.889,465.602c-0.645-0.003-1.29-0.007-1.935-0.011
	c0.162-0.158,0.324-0.316,0.486-0.474c0.801,0,1.603,0.001,2.403,0.002c0.161,0.204,0.149,0.406-0.01,0.605
	C541.492,465.892,541.171,465.897,540.889,465.602z"/>
<path fill-rule="evenodd" clip-rule="evenodd" fill="#1D1D1B" d="M506.851,410.546c0.226-18.85,16.167-34.205,34.196-33.374
	c16.087,0.741,30.789,14.472,30.376,33.698c-0.387,18.019-15.076,32.946-33.863,32.455
	C520.499,442.88,506.651,428.372,506.851,410.546z"/>
<path fill-rule="evenodd" clip-rule="evenodd" fill="#EF9691" d="M425.954,472.81c3.583-0.025,7.366-0.155,11.039,1.393
	c4.561,1.923,5.35,5.119,1.974,8.618c-3.491,3.619-7.972,5.489-12.514,7.229c-8.383,3.209-17.128,5.01-26.061,5.009
	c-4.872-0.001-10.107,0.379-14.443-2.978c-1.875-1.45-2.133-4.106-0.69-6.029c2.765-3.684,6.72-5.659,10.773-7.213
	C405.563,475.182,415.331,472.373,425.954,472.81z"/>
<path fill-rule="evenodd" clip-rule="evenodd" fill="#EC8E77" d="M541.844,465.598c0-0.16,0-0.319,0-0.479
	c6.179-1.032,12.368-2.199,18.655-1.87c5.127,0.268,10.299,0.727,15.153,2.56c1.942,0.733,4.1,1.763,4.55,4.163
	c0.569,3.035-1.36,5.146-3.556,6.546c-5.188,3.31-10.843,5.612-17.028,6.375c0.001,0-0.018-0.022-0.018-0.022
	c0.393-1.597,1.884-1.543,3.012-1.856c3.566-0.988,6.881-2.537,10.127-4.262c1.06-0.563,2.067-1.217,2.926-2.063
	c2.411-2.379,2.021-5.544-0.985-7.121c-3.677-1.929-7.71-2.617-11.796-2.711c-6.138-0.142-12.29-0.223-18.34,1.189
	C543.623,466.262,542.635,466.397,541.844,465.598z"/>
<path fill-rule="evenodd" clip-rule="evenodd" fill="#EF9691" d="M541.844,465.598c2.664,0.194,5.146-0.895,7.768-1.073
	c7.686-0.52,15.358-1.006,22.883,1.287c4.126,1.258,5.539,2.901,5.369,6.108c-0.106,1.998-1.33,3.229-2.829,4.181
	c-3.711,2.355-7.631,4.275-11.913,5.413c-1.205,0.32-2.494,0.528-3.521,1.357c-2.616-0.136-5.087,0.872-7.674,0.973
	c-0.892,0.594-2-0.14-2.888,0.473h-0.236l-0.236,0.005c-1.44,0.385-2.883,0.346-4.326,0.018c-0.478,0.156-0.955,0.312-1.433,0.468
	c-3.979,0.72-7.838-0.454-11.755-0.731c-2.245-0.158-4.364-0.785-6.476-1.516c-2.313-0.799-3.865-2.327-4.217-4.721
	c-0.35-2.375,1.007-4.119,2.836-5.431c1.154-0.828,2.464-1.432,3.773-2.004c4.427-2.217,9.311-3.109,13.919-4.802
	C541.207,465.601,541.525,465.599,541.844,465.598z"/>
<path fill-rule="evenodd" clip-rule="evenodd" fill="#ED8F7A" d="M526.97,470.404c-0.859,0.851-1.945,1.354-2.956,1.982
	c-1.943,1.204-3.317,3.022-3.109,5.292c0.209,2.285,1.967,3.757,4.057,4.627c2.965,1.235,6.17,1.532,9.295,1.925
	c2.818,0.354,5.672,0.859,8.552,0.577c-1.384,0.952-3.002,0.631-4.396,0.405c-4.604-0.745-9.326-0.53-13.843-2.162
	c-2.735-0.988-4.852-2.38-5.311-5.181c-0.459-2.797,1.828-4.422,3.762-5.909c0.973-0.749,2.157-1.375,3.461-1.563
	C526.644,470.399,526.807,470.402,526.97,470.404z"/>
<path fill-rule="evenodd" clip-rule="evenodd" fill="#ED8F7A" d="M544.24,484.339c1.442-0.006,2.885-0.012,4.326-0.018
	c0,0.157-0.001,0.315-0.002,0.474C547.127,484.607,545.6,485.264,544.24,484.339z"/>
<path fill-rule="evenodd" clip-rule="evenodd" fill="#ED8F7A" d="M549.039,484.316c0.849-0.853,1.924-0.324,2.888-0.473
	C551.08,484.709,550.004,484.171,549.039,484.316z"/>
</svg>
