<?xml version="1.0" encoding="utf-8"?>
<!-- Generator: Adobe Illustrator 16.0.0, SVG Export Plug-In . SVG Version: 6.00 Build 0)  -->
<!DOCTYPE svg PUBLIC "-//W3C//DTD SVG 1.1//EN" "http://www.w3.org/Graphics/SVG/1.1/DTD/svg11.dtd">
<svg version="1.1" id="Capa_1" xmlns="http://www.w3.org/2000/svg" xmlns:xlink="http://www.w3.org/1999/xlink" x="0px" y="0px"
	 width="57.161px" height="34.637px" viewBox="0 0 57.161 34.637" enable-background="new 0 0 57.161 34.637" xml:space="preserve">
<g>
	<path fill="#FFFFFF" d="M15.678,19.374l-0.077,3.412l-1.068-4.199c-0.232-0.019-0.463-0.038-0.691-0.058l0.022,2.309l-1.012-2.399
		c-6.238-0.601-10.73-1.631-10.68-2.563c0.062-1.149,7.018-1.711,15.537-1.255c0.341,0.018,0.677,0.038,1.012,0.059
		c0.385-0.315,0.803-0.64,1.259-0.976c-1.751-0.097-3.68-0.161-5.805-0.186C8.063,13.45,3.491,14.152,0.072,15.286
		C-0.182,18.092,0.229,21,1.4,23.777c3.813,9.037,14.229,13.271,23.266,9.459c1.715-0.724,3.257-1.687,4.604-2.831
		C23.312,28.855,18.375,24.772,15.678,19.374"/>
	<path fill="#FFFFFF" d="M54.687,0c-4.276,0.338-9.62,1.685-16.293,4.59c-14.822,6.454-20.141,10.979-21.731,13.904
		c3.287,7.416,10.711,12.59,19.346,12.59c11.682,0,21.151-9.471,21.151-21.152C57.16,6.342,56.265,2.962,54.687,0 M42.122,9.377
		v3.102l-1.044-2.545c-0.241,0.128-0.485,0.255-0.731,0.383l0.771,5.103l-2.006-4.47c-0.627,0.316-1.266,0.634-1.916,0.951
		c-1.155,0.562-2.29,1.094-3.393,1.593v2.858l-1.826-2.049c-6.751,2.921-11.932,4.404-12.413,3.414
		c-0.6-1.233,6.322-5.835,15.46-10.28c9.138-4.445,17.032-7.049,17.632-5.816C53.143,2.619,48.69,5.83,42.122,9.377"/>
</g>
</svg>
